<svg xmlns="http://www.w3.org/2000/svg" id="Layer" width="14.667" height="14.667" viewBox="0 0 14.667 14.667">
    <defs>
        <style>
            .cls-1{fill:#9e9e9e}
        </style>
    </defs>
    <g id="Vrstva_151" data-name="Vrstva 151">
        <path id="Path_171" d="M8.333 1a7.333 7.333 0 1 0 7.333 7.333A7.333 7.333 0 0 0 8.333 1zm0 13.333a6 6 0 1 1 6-6 6 6 0 0 1-6 6z" class="cls-1" data-name="Path 171" transform="translate(-1 -1)"/>
        <path id="Path_172" d="M14.333 9.093h-2V5.667a.667.667 0 0 0-1.333 0V9.76a.667.667 0 0 0 .667.667h2.667a.667.667 0 0 0 0-1.333z" class="cls-1" data-name="Path 172" transform="translate(-4.333 -2.333)"/>
    </g>
</svg>
