<svg xmlns="http://www.w3.org/2000/svg" xmlns:xlink="http://www.w3.org/1999/xlink" width="1128.745" height="528.018" viewBox="0 0 1128.745 528.018">
    <defs>
        <linearGradient id="linear-gradient" x1=".501" x2=".499" y1="1.318" y2="-.551" gradientUnits="objectBoundingBox">
            <stop offset="0" stop-color="#510394"/>
            <stop offset=".121" stop-color="#4a0387"/>
            <stop offset=".342" stop-color="#370367"/>
            <stop offset=".635" stop-color="#1a0332"/>
            <stop offset=".849" stop-color="#030408"/>
        </linearGradient>
        <linearGradient id="linear-gradient-2" x1=".501" x2=".499" y1="1.135" y2="-.315" xlink:href="#linear-gradient"/>
        <linearGradient id="linear-gradient-3" x1=".501" x2=".484" y1="1.038" y2="-.025" gradientUnits="objectBoundingBox">
            <stop offset="0" stop-color="#19609b"/>
            <stop offset=".388" stop-color="#19539b"/>
            <stop offset="1" stop-color="#19389b"/>
        </linearGradient>
        <linearGradient id="linear-gradient-4" x1="1.092" x2=".22" y1=".319" y2=".567" gradientUnits="objectBoundingBox">
            <stop offset="0" stop-color="#4e9cff"/>
            <stop offset="1" stop-color="#176ad4"/>
        </linearGradient>
        <linearGradient id="linear-gradient-5" x1=".543" x2=".374" y1=".299" y2="1.029" gradientUnits="objectBoundingBox">
            <stop offset="0" stop-color="#f2be3c"/>
            <stop offset="1" stop-color="#ffac00"/>
        </linearGradient>
        <linearGradient id="linear-gradient-6" x1="65.061" x2="64.189" y1=".319" y2=".567" xlink:href="#linear-gradient-4"/>
        <linearGradient id="linear-gradient-7" x1="76.913" x2="76.745" y1=".299" y2="1.029" xlink:href="#linear-gradient-5"/>
        <linearGradient id="linear-gradient-8" x1="40.942" x2="40.238" y1="1.294" y2=".262" xlink:href="#linear-gradient-4"/>
        <linearGradient id="linear-gradient-9" x1="55.479" x2="55.097" y1="1.248" y2=".395" xlink:href="#linear-gradient-4"/>
        <linearGradient id="linear-gradient-10" x1="65.767" x2="66.516" y1=".1" y2=".5" gradientUnits="objectBoundingBox">
            <stop offset="0" stop-color="#f2bfad"/>
            <stop offset="1" stop-color="#f2dad4"/>
        </linearGradient>
        <linearGradient id="linear-gradient-11" x1="50.144" x2="49.084" y1=".276" y2="1.498" gradientUnits="objectBoundingBox">
            <stop offset="0" stop-color="#e64d4e"/>
            <stop offset="1" stop-color="#4f1b66"/>
        </linearGradient>
        <linearGradient id="linear-gradient-12" x1="163.134" x2="165.71" y1="3.905" y2="3.905" xlink:href="#linear-gradient-10"/>
        <linearGradient id="linear-gradient-13" x1=".5" x2=".5" y1=".052" y2=".934" xlink:href="#linear-gradient-4"/>
        <linearGradient id="linear-gradient-14" x1=".5" x2=".5" y1=".437" y2="1.682" gradientUnits="objectBoundingBox">
            <stop offset="0" stop-color="#ffac00"/>
            <stop offset=".999" stop-color="#ff5e00"/>
        </linearGradient>
        <linearGradient id="linear-gradient-15" x1=".714" x2=".08" y1="1.148" y2="-.237" xlink:href="#linear-gradient-11"/>
        <linearGradient id="linear-gradient-16" x1="-2.871" x2="-2.871" y1="71.834" y2="73.888" xlink:href="#linear-gradient-14"/>
        <linearGradient id="linear-gradient-17" x1=".587" x2=".479" y1="1.011" y2=".57" xlink:href="#linear-gradient-4"/>
        <linearGradient id="linear-gradient-18" x1=".23" x2=".873" y1="-.102" y2="1.331" xlink:href="#linear-gradient-11"/>
        <linearGradient id="linear-gradient-19" x1=".354" x2=".738" y1="-.133" y2="1.528" xlink:href="#linear-gradient-14"/>
        <linearGradient id="linear-gradient-20" x1=".354" x2=".829" y1="-.126" y2="1.915" xlink:href="#linear-gradient-4"/>
        <linearGradient id="linear-gradient-21" x1="0" x2="1" y1=".5" y2=".5" xlink:href="#linear-gradient-10"/>
        <linearGradient id="linear-gradient-22" x1=".799" x2=".515" y1=".116" y2=".482" xlink:href="#linear-gradient-4"/>
        <linearGradient id="linear-gradient-23" x1="1.67" x2="-.51" y1=".542" y2=".466" gradientUnits="objectBoundingBox">
            <stop offset="0" stop-color="#1d0633"/>
            <stop offset=".931" stop-color="#192b59"/>
        </linearGradient>
        <linearGradient id="linear-gradient-24" x1=".401" x2=".624" y1=".167" y2=".689" xlink:href="#linear-gradient-4"/>
        <linearGradient id="linear-gradient-25" x1=".655" x2=".201" y1=".774" y2=".13" xlink:href="#linear-gradient-10"/>
        <linearGradient id="linear-gradient-26" x1=".237" x2=".887" y1=".789" y2=".196" xlink:href="#linear-gradient-10"/>
        <linearGradient id="linear-gradient-27" x1=".19" x2=".516" y1="-.032" y2=".638" xlink:href="#linear-gradient-4"/>
        <linearGradient id="linear-gradient-28" x1=".019" x2=".587" y1=".279" y2=".566" xlink:href="#linear-gradient-4"/>
        <linearGradient id="linear-gradient-29" x1="1.189" x2="-.223" y1=".525" y2=".456" xlink:href="#linear-gradient-23"/>
        <linearGradient id="linear-gradient-30" x1="1.038" x2=".521" y1=".625" y2=".49" xlink:href="#linear-gradient-10"/>
        <linearGradient id="linear-gradient-31" x1="-.195" x2=".772" y1=".828" y2=".4" xlink:href="#linear-gradient-4"/>
        <linearGradient id="linear-gradient-32" x1="0" x2="1" y1=".5" y2=".5" xlink:href="#linear-gradient-4"/>
        <linearGradient id="linear-gradient-33" x1="-.044" x2="1.096" y1=".388" y2=".711" xlink:href="#linear-gradient-4"/>
        <linearGradient id="linear-gradient-34" x1="15.922" x2="15.031" y1="-20.056" y2="-21.123" xlink:href="#linear-gradient-11"/>
        <linearGradient id="linear-gradient-35" x1=".704" x2=".426" y1=".141" y2=".642" xlink:href="#linear-gradient-4"/>
        <style>
            .cls-10{fill:#7500b2}.cls-16{fill:#f2dad4}.cls-17{fill:#192b59}.cls-20{fill:#e64d4e}.cls-21{fill:#0872d7}.cls-22{fill:#fff}.cls-24{fill:#efe4f9}.cls-25{fill:#f6edfc}.cls-49{fill:#add9e0}
        </style>
    </defs>
    <g id="Group_677" data-name="Group 677" transform="translate(1212.277 299.037)">
        <path id="Path_2492" fill="#c2e7ef" d="M-1011.841 172.862c117.5 20.332 153.848-114.228 313.958-132.427 186.432-21.192 265.53 146.653 392.82 108.621C-162.229 106.377-61.274-164.891-141.389-264.6c-98.031-122-381.106 120-894.259 111.6-54.987-.9-139.114-5.108-166.651 41.663-43.446 73.791 61.393 261.867 190.458 284.199z" data-name="Path 2492"/>
        <g id="Group_661" data-name="Group 661" transform="translate(-1106.355 209.078)">
            <ellipse id="Ellipse_63" cx="334.56" cy="8.691" fill="url(#linear-gradient)" data-name="Ellipse 63" opacity="0.1" rx="334.56" ry="8.691" transform="translate(292.327)"/>
            <path id="Path_2493" fill="url(#linear-gradient-2)" d="M-857.042 176.266c0 3.542-57.738 6.414-128.963 6.414s-128.964-2.871-128.964-6.414 57.739-6.414 128.964-6.414 128.963 2.872 128.963 6.414z" data-name="Path 2493" opacity="0.1" transform="translate(1114.968 -167.575)"/>
        </g>
        <path id="Path_2494" fill="#030408" d="M-563.995 171.444h-163.1c-1.533 1.92-.233 4.2 1.4 4.2h160.3a2.5 2.5 0 0 0 1.4-4.2z" data-name="Path 2494" transform="translate(42.885 41.644)"/>
        <path id="Rectangle_664" fill="#19609b" d="M11.081 0H536.66a11.082 11.082 0 0 1 11.082 11.082v293.5a11.082 11.082 0 0 1-11.082 11.082H11.081A11.081 11.081 0 0 1 0 304.584V11.081A11.081 11.081 0 0 1 11.081 0z" data-name="Rectangle 664" transform="translate(-876.505 -174.742)"/>
        <rect id="Rectangle_665" width="536.544" height="301.433" fill="#fdffff" data-name="Rectangle 665" rx="8.942" transform="translate(-870.906 -169.062)"/>
        <path id="Path_2495" fill="url(#linear-gradient-3)" d="M-564.387 176.92c-5.771-4.3-15.925-11.93-19.171-14.863-4.628-4.18-7.614-56.91-7.614-56.91h-108.76s-2.986 52.73-7.613 56.91c-3.247 2.932-13.4 10.567-19.171 14.863a1.693 1.693 0 0 0 1.014 3.051h160.3a1.694 1.694 0 0 0 1.015-3.051z" data-name="Path 2495" transform="translate(42.918 35.776)"/>
        <g id="Group_662" data-name="Group 662" transform="translate(-164.988 85.219)">
            <path id="Path_2496" fill="url(#linear-gradient-4)" d="M-186.594 95.871c3.69.961 17.672.4 15-6.5-2.969-7.67-10.9-.964-14.3 3.287a95.276 95.276 0 0 0 1.448-17.391c2.513-3.021 7.823-22.209-2.636-21.259-13.707 1.246-1.563 19.409 1.594 21.471 0 4.427-.3 13.2-2.3 20.8-.426-4.836-5.248-18.589-11.657-13.739-9.3 7.035 8.492 15.527 11.189 15.381a26.4 26.4 0 0 1-3.375 7.381c-1.031 1.473-2.172 3.177-3.353 5.034l-.062.067c-.6-5.09-5.348-18.165-11.622-13.417-8.68 6.568 6.248 14.4 10.465 15.3a121.022 121.022 0 0 0-7.389 13.8c-.293-4.6-9.314-14-12.9-8.621-2 3 8.575 12.762 12.061 10.574-1.988 4.856-3.184 9.395-2.77 12.707.153 1.221.377 2.663.635 4.222-2.471-2.732-11.395-11.891-14.053-4.8-2.2 5.877 5.16 9.287 8.255 9.287 2.423 0 4.991-2.292 6-3.293q.215 1.269.445 2.6c1.246 7.232 2.741 15.939 2.3 21.175-2.107-4.09-11.523-21.115-17-10.166-2.806 5.615 5.16 10.319 8.255 11.351 2.54.847 7.082.085 8.634-.216a9.634 9.634 0 0 1-.353 1.6 60.832 60.832 0 0 1-6.132 12.259.517.517 0 0 0 .144.716.52.52 0 0 0 .285.086.514.514 0 0 0 .43-.23 66.713 66.713 0 0 0 5.231-9.814c2.431-.306 11.776-1.581 14.461-3.37 3.1-2.064 8.637-8.845 4.128-11.351-6.981-3.877-14.3 6.43-17.5 11.79 1.193-4 .137-12-1.1-19.519 2.5.749 10.621-.7 13.45-2.588 3.1-2.064 8.432-7.411 5.16-10.319-8.2-7.292-16.871 8.154-18.782 11.86-.2-1.17-.4-2.323-.588-3.44-.516-3-1-5.826-1.271-7.969-.384-3.076.761-7.5 2.805-12.46a31.482 31.482 0 0 0 13.193 1.173c7.223-1.032 10.886-6.655 8.255-9.286-4.478-4.478-17.709 4.8-21.128 7.329a114.46 114.46 0 0 1 8.2-15.339c4.21.974 20.979.617 18.709-6.043s-10.852-2.177-15.9 1.725c.415-.614.831-1.225 1.25-1.822a30.72 30.72 0 0 0 4.189-10.023z" data-name="Path 2496" transform="translate(252.711 -53.973)"/>
            <path id="Path_2497" fill="url(#linear-gradient-5)" d="M-213.923 156.292c-8.661-3.465-10.78 9.792-11.236 14.14a50.991 50.991 0 0 1-1.856-20.336c1.318-.033 6.427-.274 10-2.058 4.128-2.064 6.674-10.329 3.1-11.351-6.01-1.718-11.3 8.7-12.911 12.255.14-.8.309-1.577.51-2.315a92.142 92.142 0 0 0 2.684-17.169c1.629-.03 6.174-.188 8.684-1.025 3.1-1.032 8.337-9.115 4.128-10.318-5.8-1.658-10.933 6.664-12.73 10.007.347-6.379.084-12.518-1-16.7a40.725 40.725 0 0 0 1.349-8.784c0-4.128-4.789-12.252-9.286-8.254-8.215 7.3 4.1 15.837 7.047 17.71 1 4.12 1.218 10.068.861 16.237-1.844-4.641-9.3-21.348-18.227-13.31-3.43 3.087 4.128 10.318 9.287 12.382a29.392 29.392 0 0 0 8.868 2.063 91.324 91.324 0 0 1-2.659 16.892 26.938 26.938 0 0 0-.579 2.723c-1.956-3.947-11.059-20.731-21.108-13.422-4.172 3.035 4.128 10.319 8.255 12.383 3.543 1.771 10.756 1.864 12.728 1.855a52.131 52.131 0 0 0 1.776 20.34c-3.032-4.586-11.894-16.36-18.632-8.781-4 4.5 6.35 8.308 9.287 9.287 2.586.862 8.118 1.119 9.87 1.18 1.468 4.431 3.465 8.109 5.794 10.05a.514.514 0 0 0 .33.12.518.518 0 0 0 .4-.185.517.517 0 0 0-.066-.727c-2.223-1.852-4.127-5.361-5.531-9.6a52.855 52.855 0 0 0 7.78-3.932c3.083-2.07 7.873-9.44 3.083-11.357z" data-name="Path 2497" transform="translate(250.149 -50.491)"/>
            <path id="Path_2498" d="M-192.628 174.953h-46.95a.516.516 0 0 1-.516-.516.516.516 0 0 1 .516-.516h46.95a.516.516 0 0 1 .516.516.516.516 0 0 1-.516.516z" class="cls-10" data-name="Path 2498" transform="translate(251.039 -43.356)"/>
            <path id="Path_2499" d="M-180.4 174.953h-10.835a.516.516 0 0 1-.516-.516.516.516 0 0 1 .516-.516h10.835a.516.516 0 0 1 .516.516.516.516 0 0 1-.516.516z" class="cls-10" data-name="Path 2499" transform="translate(255.318 -43.356)"/>
        </g>
        <g id="Group_663" data-name="Group 663" transform="translate(-1204.834 85.219)">
            <path id="Path_2500" fill="url(#linear-gradient-6)" d="M-1190.1 95.871c-3.691.961-17.672.4-15-6.5 2.969-7.67 10.9-.964 14.3 3.287a95.362 95.362 0 0 1-1.447-17.391c-2.513-3.021-7.823-22.209 2.636-21.259 13.707 1.246 1.563 19.409-1.595 21.471 0 4.427.3 13.2 2.3 20.8.426-4.836 5.248-18.589 11.657-13.739 9.3 7.035-8.491 15.527-11.189 15.381a26.409 26.409 0 0 0 3.375 7.381c1.031 1.473 2.172 3.177 3.351 5.034l.063.067c.6-5.09 5.348-18.165 11.622-13.417 8.68 6.568-6.249 14.4-10.466 15.3a120.842 120.842 0 0 1 7.39 13.8c.293-4.6 9.314-14 12.9-8.621 2 3-8.576 12.762-12.062 10.574 1.989 4.856 3.185 9.395 2.77 12.707-.152 1.221-.375 2.663-.634 4.222 2.47-2.732 11.394-11.891 14.053-4.8 2.2 5.877-5.16 9.287-8.255 9.287-2.423 0-4.992-2.292-6-3.293q-.215 1.269-.446 2.6c-1.245 7.232-2.74 15.939-2.3 21.175 2.107-4.09 11.524-21.115 17-10.166 2.806 5.615-5.16 10.319-8.255 11.351-2.54.847-7.082.085-8.634-.216a9.5 9.5 0 0 0 .353 1.6 60.913 60.913 0 0 0 6.13 12.259.517.517 0 0 1-.143.716.521.521 0 0 1-.286.086.517.517 0 0 1-.43-.23 66.757 66.757 0 0 1-5.23-9.814c-2.432-.306-11.776-1.581-14.461-3.37-3.1-2.064-8.638-8.845-4.128-11.351 6.98-3.877 14.3 6.43 17.5 11.79-1.194-4-.137-12 1.1-19.519-2.5.749-10.621-.7-13.449-2.588-3.1-2.064-8.432-7.411-5.16-10.319 8.2-7.292 16.87 8.154 18.782 11.86.2-1.17.4-2.323.587-3.44.517-3 1-5.826 1.272-7.969.384-3.076-.761-7.5-2.8-12.46a31.483 31.483 0 0 1-13.193 1.173c-7.223-1.032-10.886-6.655-8.255-9.286 4.478-4.478 17.709 4.8 21.128 7.329a114.469 114.469 0 0 0-8.2-15.339c-4.209.974-20.979.617-18.709-6.043s10.852-2.177 15.9 1.725c-.416-.614-.832-1.225-1.25-1.822a30.7 30.7 0 0 1-4.192-10.023z" data-name="Path 2500" transform="translate(1205.439 -53.973)"/>
            <path id="Path_2501" fill="url(#linear-gradient-7)" d="M-1163.508 156.292c8.661-3.465 10.78 9.792 11.236 14.14a50.994 50.994 0 0 0 1.856-20.336c-1.318-.033-6.428-.274-10-2.058-4.128-2.064-6.674-10.329-3.1-11.351 6.01-1.718 11.3 8.7 12.911 12.255-.141-.8-.309-1.577-.51-2.315a92.144 92.144 0 0 1-2.684-17.169c-1.629-.03-6.174-.188-8.684-1.025-3.1-1.032-8.337-9.115-4.128-10.318 5.8-1.658 10.933 6.664 12.73 10.007-.347-6.379-.084-12.518 1-16.7a40.79 40.79 0 0 1-1.349-8.784c0-4.128 4.791-12.252 9.287-8.254 8.215 7.3-4.1 15.837-7.048 17.71-1 4.12-1.217 10.068-.86 16.237 1.844-4.641 9.3-21.348 18.227-13.31 3.43 3.087-4.128 10.318-9.287 12.382a29.392 29.392 0 0 1-8.868 2.063 91.322 91.322 0 0 0 2.659 16.892 26.959 26.959 0 0 1 .579 2.723c1.956-3.947 11.059-20.731 21.107-13.422 4.173 3.035-4.127 10.319-8.254 12.383-3.543 1.771-10.756 1.864-12.729 1.855a52.13 52.13 0 0 1-1.776 20.34c3.031-4.586 11.894-16.36 18.632-8.781 4 4.5-6.35 8.308-9.287 9.287-2.586.862-8.118 1.119-9.87 1.18-1.468 4.431-3.465 8.109-5.794 10.05a.514.514 0 0 1-.33.12.517.517 0 0 1-.4-.185.518.518 0 0 1 .066-.727c2.223-1.852 4.127-5.361 5.531-9.6a52.868 52.868 0 0 1-7.78-3.932c-3.083-2.07-7.875-9.44-3.083-11.357z" data-name="Path 2501" transform="translate(1208.738 -50.491)"/>
            <path id="Path_2502" d="M-1184.227 174.953h46.951a.516.516 0 0 0 .516-.516.516.516 0 0 0-.516-.516h-46.951a.516.516 0 0 0-.516.516.516.516 0 0 0 .516.516z" class="cls-10" data-name="Path 2502" transform="translate(1207.271 -43.356)"/>
            <path id="Path_2503" d="M-1199.394 174.953h10.835a.516.516 0 0 0 .516-.516.516.516 0 0 0-.516-.516h-10.835a.516.516 0 0 0-.516.516.516.516 0 0 0 .516.516z" class="cls-10" data-name="Path 2503" transform="translate(1205.928 -43.356)"/>
        </g>
        <g id="Group_665" data-name="Group 665" transform="translate(-300.868 -44.429)">
            <path id="Path_2504" fill="url(#linear-gradient-8)" d="M-286.845 157.86c1.206-.126 2.564 1.458 3.343 2.462s2.312 4.549 2.236 5.981-2.712 5.83-2.788 6.785-.957 8.368-1.207 8.62a1.658 1.658 0 0 1-1.282.2c-.427-.076.855-8.268.779-9.2A2.138 2.138 0 0 0-288.4 171c-1.508.3-4.775 2.714-5.981 4.2s-4.674 6.408-6.508 6.961-13.52-.9-14.718-1.226-3.01-.907-2.756-2.1 4.279-2.683 6.383-2.937 5-1.741 6.491-2 11.6-9.89 12.466-11.186 6.178-4.852 6.178-4.852z" data-name="Path 2504" transform="translate(379.989 84.87)"/>
            <path id="Path_2505" fill="url(#linear-gradient-9)" d="M-267.894 156.3c.845.134 5.794 4.254 5.908 6.142a16.486 16.486 0 0 1-.571 3.976c-.029.687-.115 5.493.429 7.3s1.288 4.521.972 4.921a1.324 1.324 0 0 1-1.545 0c-.143-.258-1.288-9.727-1.917-8.9a27.4 27.4 0 0 0-2.231 7.067c-.172 1.6-.087 5.464-1.045 6.838s-5.163 3.976-9.884 4.377-8.641 1-9.3.4.829-3.061 2.632-5.207 3.347-3.948 4.062-4.635 12.49-22.279 12.49-22.279z" data-name="Path 2505" transform="translate(382.747 84.733)"/>
            <path id="Path_2506" fill="url(#linear-gradient-10)" d="M-293.059 106.37c-.242 1.812.786 4.412 1.572 6.165s2.108 34.678 2.321 38.605.649 10.135 1.4 10.891.846 1.239.272 1.933-8.154 9.725-9.936 11.808-5.5 6.132-7.944 6.071-4.289-.846-4.289-1.238 2.507-1.208 3.172-2.507 4.047-9.03 4.5-10.662 1.3-11.054.876-13.953-4.6-30.552-4.667-34.841.267-13.892.791-15.016 11.932 2.744 11.932 2.744z" data-name="Path 2506" transform="translate(380.762 80.052)"/>
            <path id="Path_2507" d="M-313.344 103.662c-.651 2.53-1.229 9.975 0 11.493s5.782 6.723 8.1 9.252 13.3 19.156 16.481 23.42 10.771 18.578 10.843 22.7-.1 11.819-.436 12.743-1.7 2.141-.1 3.065 7.881.341 9.583-1.07a6.853 6.853 0 0 0 2.335-5.156c.048-1.7.68-8.61 1.021-10.314s1.022-7.978 0-8.756-4.67-3.988-5.3-5.74-7.929-16.783-8.61-18.826-6.47-13.523-9.437-16.88-6.08-8.171-6.372-9.436.39-2.676-.243-3.308-7.2-3.211-9.68-3.844-8.185.657-8.185.657z" class="cls-16" data-name="Path 2507" transform="translate(380.372 80)"/>
            <path id="Path_2508" d="M-276.785 61.1c1.3 5.568-8.163 19.024-8.163 21.351s.1 21.757-1.315 24.389-6.578 7.083-15.989 5.262-14.673-3.947-15.989-8.3 6.729-44.222 8.609-46.044 31.55-2.226 32.847 3.342z" class="cls-17" data-name="Path 2508" transform="translate(379.989 75.903)"/>
            <path id="Path_2509" fill="#ffa448" d="M-275.108-24.851s8.818 6.377 8.867 19.919-6.078 29.062-5.08 40.4c1.711 19.435-2.883 33.78-5.854 35.875s-38.91.555-36.8-4.675c3.276-8.126 6.153-45.957 6.714-51.276s-.683-14.472 2.026-18.316 11.964-17.846 14.3-19.04 15.827-2.887 15.827-2.887z" data-name="Path 2509" transform="translate(380.372 68.699)"/>
            <path id="Path_2510" d="M-299.586-57.265s-2.028 4.091-1.465 7.968c0 0-3.282 6.111-3.148 6.818s2.832.785 2.753 1.54 1.824 5.746 1.48 7.03.329 2.812 2.464 2.967 3.893-.7 4.488 2.209 2.643 7.983 2.14 9.039-3.946 6.5-4.285 8.483c0 0 1.66-.282 4.858-4.64s15.018-5.133 14.319-5.924-1.686-4.417-2.29-7.35-.568-11.928-.076-13.506 2.81-12.42-3.65-14.863-15.809-3.24-17.588.229z" class="cls-16" data-name="Path 2510" transform="translate(381.245 65.623)"/>
            <path id="Path_2511" fill="url(#linear-gradient-11)" d="M-300.189-55.864c-.7-2.614.524-3.527 2.459-5.683s4.229-1.514 6.221-2.309a11.79 11.79 0 0 1 8.917-.717c4.487 1.277 6.758 5.585 8.435 8.02a14.746 14.746 0 0 1 3.046 11.353c-.7 5.8-3.762 10.761-5.915 10.795s-7.019-1.856-5.734-4.188c5.1-9.26-1.7-9.882-3.8-9.126s-11.8-2.027-13.629-8.145z" data-name="Path 2511" transform="translate(381.582 65.133)"/>
            <path id="Path_2512" d="M-277.309-54.9a1.841 1.841 0 0 1 2.292-1.867c1.965.5 4.589 1.286 5.666 2.138 1.82 1.44 5.163 5.277 4.423 12.3s-4.14 22.022-3.476 28.341a34.232 34.232 0 0 0 2.194 9.005.58.58 0 0 1-.837.713c-3.026-1.8-9.514-6.583-9.5-14.433.015-10.235 6.046-30.87 3.873-32.96a5.253 5.253 0 0 0-3.049-1.495 1.824 1.824 0 0 1-1.585-1.742z" class="cls-20" data-name="Path 2512" transform="translate(383.625 65.869)"/>
            <path id="Rectangle_666" d="M0 0H69.206V72.875H0z" class="cls-21" data-name="Rectangle 666" transform="scale(-1) rotate(6.43 1201.327 -681.467)"/>
            <g id="Group_664" data-name="Group 664" transform="translate(10.603 74.712)">
                <path id="Path_2513" d="M-354.181 31.355l-3.789 16.668a1.672 1.672 0 0 0 1.44 2.032l4.058.468a1.673 1.673 0 0 0 1.865-1.688l-.27-17.136a1.673 1.673 0 0 0-3.304-.344z" class="cls-22" data-name="Path 2513" transform="translate(365.879 -1.154)"/>
                <path id="Path_2514" d="M-347.7 37.663l-2.992 10.622a1.673 1.673 0 0 0 1.419 2.116l3.84.442a1.673 1.673 0 0 0 1.859-1.791l-.848-11.064a1.673 1.673 0 0 0-3.278-.325z" class="cls-22" data-name="Path 2514" transform="translate(366.522 -.588)"/>
                <path id="Path_2515" d="M-340.223 36.077l-3.354 13.29a1.674 1.674 0 0 0 1.431 2.071l3.959.456a1.673 1.673 0 0 0 1.862-1.736l-.605-13.746a1.673 1.673 0 0 0-3.293-.335z" class="cls-22" data-name="Path 2515" transform="translate(367.152 -.733)"/>
                <path id="Path_2516" d="M-329.238 21.066a1.677 1.677 0 0 1 .7-1.3 1.321 1.321 0 0 0 .494-.888 1.328 1.328 0 0 0-1.167-1.472 1.329 1.329 0 0 0-1.472 1.168 1.323 1.323 0 0 0 .372 1.08 1.749 1.749 0 0 1 .51 1.592l-6.677 30.608a1.674 1.674 0 0 0 1.443 2.018l4.1.471a1.672 1.672 0 0 0 1.865-1.671z" class="cls-22" data-name="Path 2516" transform="translate(367.782 -2.274)"/>
                <path id="Path_2517" d="M-326.551 43.141l-2.489 7.272a1.672 1.672 0 0 0 1.391 2.2l3.588.414a1.673 1.673 0 0 0 1.847-1.9l-1.1-7.686a1.673 1.673 0 0 0-3.237-.3z" class="cls-22" data-name="Path 2517" transform="translate(368.435 -.096)"/>
                <path id="Path_2518" d="M-310.712 8.783a1.319 1.319 0 0 0-1.066.358 1.568 1.568 0 0 1-1.255.483l-41.36-4.763a1.584 1.584 0 0 1-1.121-.757 1.335 1.335 0 0 0-.962-.592 1.34 1.34 0 0 0-1.484 1.178 1.33 1.33 0 0 0 .438 1.148 1.673 1.673 0 0 1 .45 1.57l-8.136 42.112a1.672 1.672 0 0 0 1.451 1.979l4.192.483a1.674 1.674 0 0 0 1.864-1.624l1-42.944a1.668 1.668 0 0 1 .75-1.422 1.364 1.364 0 0 0 .2-.143 1.83 1.83 0 0 1 1.4-.505l41.279 4.754a1.572 1.572 0 0 1 1.107.741 1.366 1.366 0 0 0 .14.174 1.558 1.558 0 0 1 .475 1.241l-4.743 41.178a1.571 1.571 0 0 1-.749 1.111 1.32 1.32 0 0 0-.586.952 1.328 1.328 0 0 0 1.168 1.472 1.328 1.328 0 0 0 1.47-1.167 1.322 1.322 0 0 0-.354-1.061 1.569 1.569 0 0 1-.477-1.252l4.742-41.17a1.571 1.571 0 0 1 .749-1.111 1.322 1.322 0 0 0 .586-.954 1.328 1.328 0 0 0-1.168-1.469z" class="cls-22" data-name="Path 2518" transform="translate(365.239 -3.504)"/>
            </g>
            <path id="Path_2519" d="M-348.856 53.591c1.645-.8 4.715-3.436 5.7-3.509s6.369-1.69 7.671-1.985 8.728-4.415 12.773-7.076c25.732-16.93 36.153-50.831 39.4-55.893 2.791-4.348 5.209-6.836 8.451-5.78 8.231 2.856 9.4 8.245 8.281 15.856s-9 7.5-9 7.5-.868 1.422-3.863 7.162-11.8 20.835-17.117 24.808c-1.843 1.663-6.126 4.315-8.134 6.161S-327.642 54.264-328.7 55.2s-1.139 3.662-1.749 5.616-3.662 7.322-4.231 7.567a5.813 5.813 0 0 1-2.6-.163c-.163-.122-.651.245-1.505.751s-1.465-.506-1.831-.791-.57.611-1.384.773-1.872-.814-2.116-1.1-.935.407-2.034.244-1.627-2.6-1.627-2.6a3.565 3.565 0 0 0 1.547-.2c.528-.285 2.2-7.242 2.562-8.3s1.042-2.258 0-2.644c-.628-.234-2.7 1.695-4.16 2.28s-3.911 0-4.5-.7 1.828-1.533 3.472-2.342z" class="cls-16" data-name="Path 2519" transform="translate(376.977 69.049)"/>
            <path id="Path_2520" fill="url(#linear-gradient-12)" d="M-272.673-7.152c-.045.374-.094.752-.15 1.139-1.121 7.611-9 7.5-9 7.5.951-1.815 7.045-6.08 9.15-8.639z" data-name="Path 2520" transform="translate(383.226 70.265)"/>
        </g>
        <path id="Path_2521" d="M-416.379 87.773h-2.721a.544.544 0 0 1-.544-.544.544.544 0 0 1 .544-.544h2.718a5.115 5.115 0 0 0 2.382-.578.547.547 0 0 1 .735.233.546.546 0 0 1-.233.735 6.215 6.215 0 0 1-2.881.698zm-8.165 0h-5.448a.544.544 0 0 1-.544-.544.544.544 0 0 1 .544-.544h5.448a.544.544 0 0 1 .544.544.544.544 0 0 1-.544.544zm-10.9 0h-5.448a.544.544 0 0 1-.544-.544.544.544 0 0 1 .544-.544h5.448a.544.544 0 0 1 .544.544.544.544 0 0 1-.54.544zm-10.9 0h-5.448a.544.544 0 0 1-.544-.544.544.544 0 0 1 .544-.544h5.448a.544.544 0 0 1 .544.544.544.544 0 0 1-.536.544zm-10.9 0h-5.447a.544.544 0 0 1-.544-.544.544.544 0 0 1 .544-.544h5.447a.544.544 0 0 1 .544.544.544.544 0 0 1-.532.544zm-10.895 0h-5.448a.544.544 0 0 1-.544-.544.544.544 0 0 1 .544-.544h5.448a.544.544 0 0 1 .544.544.544.544 0 0 1-.532.544zm-10.9 0h-5.448a.544.544 0 0 1-.544-.544.544.544 0 0 1 .544-.544h5.448a.544.544 0 0 1 .544.544.544.544 0 0 1-.528.544zm-10.9 0h-5.448a.545.545 0 0 1-.544-.544.545.545 0 0 1 .544-.544h5.448a.544.544 0 0 1 .544.544.544.544 0 0 1-.524.544zm-10.9 0h-5.447a.544.544 0 0 1-.544-.544.544.544 0 0 1 .544-.544h5.447a.544.544 0 0 1 .544.544.544.544 0 0 1-.52.544zm-10.895 0h-5.448a.544.544 0 0 1-.544-.544.544.544 0 0 1 .544-.544h5.448a.544.544 0 0 1 .544.544.544.544 0 0 1-.52.544zm-10.9 0h-5.448a.544.544 0 0 1-.544-.544.544.544 0 0 1 .544-.544h5.448a.544.544 0 0 1 .544.544.544.544 0 0 1-.516.544zm-10.9 0a6.272 6.272 0 0 1-5.087-2.664.543.543 0 0 1 .133-.758.543.543 0 0 1 .759.133 5.184 5.184 0 0 0 4.2 2.2.544.544 0 0 1 .541.548.544.544 0 0 1-.512.54zm122.779-4.917a.6.6 0 0 1-.076-.005.544.544 0 0 1-.464-.615 5.153 5.153 0 0 0 .049-.715v-4.656a.544.544 0 0 1 .544-.544.544.544 0 0 1 .544.544v4.655a6.306 6.306 0 0 1-.06.866.544.544 0 0 1-.505.469zm-128.425-2.749a.544.544 0 0 1-.544-.544v-5.448a.544.544 0 0 1 .544-.544.544.544 0 0 1 .544.544v5.448a.543.543 0 0 1-.544.544zm128.51-8.145a.544.544 0 0 1-.544-.544v-5.449a.544.544 0 0 1 .544-.544.544.544 0 0 1 .544.544v5.448a.544.544 0 0 1-.544.544zm-128.51-2.751a.544.544 0 0 1-.544-.544v-5.448a.544.544 0 0 1 .544-.544.544.544 0 0 1 .544.544v5.448a.543.543 0 0 1-.544.544zm128.51-8.145a.544.544 0 0 1-.544-.544v-5.449a.544.544 0 0 1 .544-.544.544.544 0 0 1 .544.544v5.448a.544.544 0 0 1-.544.544zm-128.51-2.75a.544.544 0 0 1-.544-.544v-5.448a.544.544 0 0 1 .544-.544.543.543 0 0 1 .544.544v5.448a.544.544 0 0 1-.544.544zm128.51-8.146a.544.544 0 0 1-.544-.544v-5.448a.544.544 0 0 1 .544-.544.544.544 0 0 1 .544.544v5.447a.544.544 0 0 1-.544.544zm-128.51-2.75a.544.544 0 0 1-.544-.544v-5.448a.544.544 0 0 1 .544-.544.544.544 0 0 1 .544.544v5.448a.543.543 0 0 1-.544.544zm128.51-8.145a.544.544 0 0 1-.544-.544v-5.449a.544.544 0 0 1 .544-.544.544.544 0 0 1 .544.544v5.448a.544.544 0 0 1-.544.545zm-128.51-2.75a.544.544 0 0 1-.544-.544v-5.448a.544.544 0 0 1 .544-.544.543.543 0 0 1 .544.544v5.448a.544.544 0 0 1-.544.544zm128.51-8.146a.544.544 0 0 1-.544-.544v-1.989a5.131 5.131 0 0 0-.919-2.94.544.544 0 0 1 .137-.757.544.544 0 0 1 .758.136 6.218 6.218 0 0 1 1.112 3.561v1.989a.544.544 0 0 1-.544.543zm-128.459-2.747a.55.55 0 0 1-.073-.005.544.544 0 0 1-.468-.611 6.262 6.262 0 0 1 3.292-4.707.544.544 0 0 1 .734.229.542.542 0 0 1-.228.735 5.171 5.171 0 0 0-2.717 3.887.546.546 0 0 1-.54.471zm122.814-4.951h-5.512a.544.544 0 0 1-.544-.544.544.544 0 0 1 .544-.544h5.448a.573.573 0 0 1 .577.544.518.518 0 0 1-.513.544zm-10.96 0h-5.448a.544.544 0 0 1-.544-.544.544.544 0 0 1 .544-.544h5.448a.544.544 0 0 1 .544.544.544.544 0 0 1-.544.544zm-10.9 0h-5.448a.544.544 0 0 1-.544-.544.544.544 0 0 1 .544-.544h5.448a.544.544 0 0 1 .544.544.544.544 0 0 1-.54.544zm-10.9 0h-5.447a.544.544 0 0 1-.544-.544.544.544 0 0 1 .544-.544h5.447a.544.544 0 0 1 .544.544.544.544 0 0 1-.536.544zm-10.895 0h-5.448a.544.544 0 0 1-.544-.544.544.544 0 0 1 .544-.544h5.448a.544.544 0 0 1 .544.544.544.544 0 0 1-.536.544zm-10.9 0h-5.448a.544.544 0 0 1-.544-.544.544.544 0 0 1 .544-.544h5.448a.544.544 0 0 1 .544.544.544.544 0 0 1-.532.544zm-10.9 0h-5.43a.544.544 0 0 1-.544-.544.544.544 0 0 1 .544-.544h5.448a.544.544 0 0 1 .544.544.544.544 0 0 1-.546.544zm-10.9 0h-5.43a.544.544 0 0 1-.544-.544.544.544 0 0 1 .544-.544h5.447a.544.544 0 0 1 .544.544.544.544 0 0 1-.541.544zm-10.895 0h-5.448a.544.544 0 0 1-.544-.544.544.544 0 0 1 .544-.544h5.448a.544.544 0 0 1 .544.544.544.544 0 0 1-.524.544zm-10.9 0h-5.448a.544.544 0 0 1-.544-.544.545.545 0 0 1 .544-.544h5.448a.544.544 0 0 1 .544.544.544.544 0 0 1-.52.544zm-10.9 0h-5.448a.544.544 0 0 1-.544-.544.544.544 0 0 1 .544-.544h5.448a.544.544 0 0 1 .544.544.544.544 0 0 1-.516.544z" class="cls-24" data-name="Path 2521" transform="translate(59.53 28.203)"/>
        <path id="Path_2522" d="M-548.177 87.773a.545.545 0 0 1-.544-.541.544.544 0 0 1 .541-.548 5.177 5.177 0 0 0 4.228-2.239.543.543 0 0 1 .756-.139.544.544 0 0 1 .14.757 6.266 6.266 0 0 1-5.118 2.71zm-5.5 0h-5.5a.544.544 0 0 1-.544-.544.544.544 0 0 1 .544-.544h5.5a.544.544 0 0 1 .544.544.544.544 0 0 1-.544.544zm-11 0h-5.5a.544.544 0 0 1-.544-.544.544.544 0 0 1 .544-.544h5.5a.544.544 0 0 1 .544.544.544.544 0 0 1-.542.544zm-11 0h-5.5a.544.544 0 0 1-.544-.544.544.544 0 0 1 .544-.544h5.5a.544.544 0 0 1 .544.544.544.544 0 0 1-.541.544zm-11 0h-5.5a.544.544 0 0 1-.544-.544.544.544 0 0 1 .544-.544h5.5a.544.544 0 0 1 .544.544.544.544 0 0 1-.54.544zm-11 0h-5.5a.544.544 0 0 1-.544-.544.544.544 0 0 1 .544-.544h5.5a.544.544 0 0 1 .544.544.544.544 0 0 1-.538.544zm-11 0h-5.5a.544.544 0 0 1-.544-.544.544.544 0 0 1 .544-.544h5.5a.544.544 0 0 1 .544.544.544.544 0 0 1-.536.544zm-11 0h-5.5a.544.544 0 0 1-.544-.544.544.544 0 0 1 .544-.544h5.5a.544.544 0 0 1 .544.544.544.544 0 0 1-.536.544zm-11 0h-5.5a.544.544 0 0 1-.544-.544.544.544 0 0 1 .544-.544h5.5a.544.544 0 0 1 .544.544.544.544 0 0 1-.534.544zm-11 0h-5.5a.544.544 0 0 1-.544-.544.544.544 0 0 1 .544-.544h5.5a.544.544 0 0 1 .544.544.544.544 0 0 1-.533.544zm-11 0h-3.423a6.231 6.231 0 0 1-2.211-.4.546.546 0 0 1-.317-.7.55.55 0 0 1 .7-.317 5.125 5.125 0 0 0 1.825.332h3.437a.544.544 0 0 1 .544.544.544.544 0 0 1-.542.541zm-8.976-4.314a.544.544 0 0 1-.528-.411 6.312 6.312 0 0 1-.188-1.528v-4.09a.544.544 0 0 1 .544-.544.544.544 0 0 1 .544.544v4.09a5.164 5.164 0 0 0 .156 1.263.545.545 0 0 1-.4.662.622.622 0 0 1-.115.014zM-542.5 80a.543.543 0 0 1-.544-.544v-5.5a.543.543 0 0 1 .544-.544.544.544 0 0 1 .544.544v5.5a.544.544 0 0 1-.544.544zm-119.312-7.529a.544.544 0 0 1-.544-.544v-5.5a.544.544 0 0 1 .544-.544.543.543 0 0 1 .544.544v5.5a.543.543 0 0 1-.544.548zm119.312-3.465a.544.544 0 0 1-.544-.544v-5.5a.544.544 0 0 1 .544-.544.544.544 0 0 1 .544.544v5.5a.544.544 0 0 1-.544.544zm-119.312-7.529a.544.544 0 0 1-.544-.544v-5.5a.544.544 0 0 1 .544-.544.544.544 0 0 1 .544.544v5.5a.544.544 0 0 1-.544.544zm119.312-3.469a.543.543 0 0 1-.544-.544v-5.5a.543.543 0 0 1 .544-.544.544.544 0 0 1 .544.544v5.5a.544.544 0 0 1-.544.544zm-119.312-7.53a.544.544 0 0 1-.544-.544v-5.5a.544.544 0 0 1 .544-.544.543.543 0 0 1 .544.544v5.5a.543.543 0 0 1-.544.543zm119.312-3.469a.544.544 0 0 1-.544-.544v-5.5a.543.543 0 0 1 .544-.544.544.544 0 0 1 .544.544v5.5a.544.544 0 0 1-.544.544zm-119.312-7.53a.544.544 0 0 1-.544-.544v-5.5a.544.544 0 0 1 .544-.544.544.544 0 0 1 .544.544v5.5a.543.543 0 0 1-.544.544zM-542.5 36.01a.543.543 0 0 1-.544-.544v-5.5a.543.543 0 0 1 .544-.544.544.544 0 0 1 .544.544v5.5a.544.544 0 0 1-.544.544zm-119.312-7.529a.544.544 0 0 1-.544-.544v-2.091a6.217 6.217 0 0 1 1.081-3.514.541.541 0 0 1 .755-.144.542.542 0 0 1 .144.755 5.143 5.143 0 0 0-.892 2.9v2.091a.544.544 0 0 1-.544.547zm119.149-3.455a.544.544 0 0 1-.528-.415 5.168 5.168 0 0 0-3.165-3.589.544.544 0 0 1-.312-.7.544.544 0 0 1 .7-.312 6.255 6.255 0 0 1 3.832 4.344.544.544 0 0 1-.4.659.543.543 0 0 1-.127.013zm-8.951-4.345h-5.5a.544.544 0 0 1-.544-.544.544.544 0 0 1 .544-.544h5.5a.544.544 0 0 1 .544.544.544.544 0 0 1-.544.544zm-11 0h-5.5a.544.544 0 0 1-.544-.544.544.544 0 0 1 .544-.544h5.5a.544.544 0 0 1 .544.544.544.544 0 0 1-.543.544zm-11 0h-5.5a.544.544 0 0 1-.544-.544.544.544 0 0 1 .544-.544h5.5a.545.545 0 0 1 .544.544.544.544 0 0 1-.542.544zm-11 0h-5.5a.544.544 0 0 1-.544-.544.544.544 0 0 1 .544-.544h5.5a.544.544 0 0 1 .544.544.544.544 0 0 1-.541.544zm-11 0h-5.5a.544.544 0 0 1-.544-.544.544.544 0 0 1 .544-.544h5.5a.544.544 0 0 1 .544.544.544.544 0 0 1-.538.544zm-11 0h-5.5a.544.544 0 0 1-.544-.544.544.544 0 0 1 .544-.544h5.5a.544.544 0 0 1 .544.544.544.544 0 0 1-.538.544zm-11 0h-5.5a.544.544 0 0 1-.544-.544.544.544 0 0 1 .544-.544h5.5a.544.544 0 0 1 .544.544.544.544 0 0 1-.536.544zm-11 0h-5.5a.544.544 0 0 1-.544-.544.544.544 0 0 1 .544-.544h5.5a.544.544 0 0 1 .544.544.544.544 0 0 1-.536.544zm-11 0h-5.5a.544.544 0 0 1-.544-.544.544.544 0 0 1 .544-.544h5.5a.544.544 0 0 1 .544.544.544.544 0 0 1-.53.544zm-11 0h-5.5a.573.573 0 0 1-.577-.544.518.518 0 0 1 .513-.544v.544l.05-.544h5.513a.544.544 0 0 1 .544.544.544.544 0 0 1-.529.544z" class="cls-24" data-name="Path 2522" transform="translate(48.675 28.203)"/>
        <path id="Path_2523" d="M-661.6 87.773h-2.443a.544.544 0 0 1-.544-.544.544.544 0 0 1 .544-.544h2.443a5.172 5.172 0 0 0 2.581-.685.543.543 0 0 1 .743.2.544.544 0 0 1-.2.743 6.26 6.26 0 0 1-3.124.83zm-7.871 0h-5.429a.544.544 0 0 1-.544-.544.544.544 0 0 1 .544-.544h5.427a.544.544 0 0 1 .544.544.544.544 0 0 1-.54.544zm-10.856 0h-5.428a.544.544 0 0 1-.544-.544.544.544 0 0 1 .544-.544h5.428a.544.544 0 0 1 .544.544.544.544 0 0 1-.542.544zm-10.857 0h-5.428a.545.545 0 0 1-.544-.544.545.545 0 0 1 .544-.544h5.428a.544.544 0 0 1 .544.544.544.544 0 0 1-.542.544zm-10.857 0h-5.427a.544.544 0 0 1-.544-.544.544.544 0 0 1 .544-.544h5.427a.544.544 0 0 1 .544.544.544.544 0 0 1-.541.544zm-10.856 0h-5.428a.544.544 0 0 1-.544-.544.544.544 0 0 1 .544-.544h5.428a.544.544 0 0 1 .544.544.544.544 0 0 1-.541.544zm-10.857 0h-5.428a.544.544 0 0 1-.544-.544.544.544 0 0 1 .544-.544h5.428a.544.544 0 0 1 .544.544.544.544 0 0 1-.541.544zm-10.856 0h-5.428a.544.544 0 0 1-.544-.544.544.544 0 0 1 .544-.544h5.428a.544.544 0 0 1 .544.544.544.544 0 0 1-.541.544zm-10.857 0h-5.428a.544.544 0 0 1-.544-.544.544.544 0 0 1 .544-.544h5.428a.544.544 0 0 1 .544.544.544.544 0 0 1-.541.544zm-10.857 0h-5.427a.544.544 0 0 1-.544-.544.544.544 0 0 1 .544-.544h5.427a.544.544 0 0 1 .544.544.544.544 0 0 1-.54.544zm-10.856 0h-5.42a.544.544 0 0 1-.544-.544.544.544 0 0 1 .544-.544h5.428a.544.544 0 0 1 .544.544.544.544 0 0 1-.548.544zm-10.857 0h-5.428a.545.545 0 0 1-.544-.544.545.545 0 0 1 .544-.544h5.428a.544.544 0 0 1 .544.544.544.544 0 0 1-.54.544zm-10.857 0h-5.427a.544.544 0 0 1-.544-.544.544.544 0 0 1 .544-.544h5.427a.544.544 0 0 1 .544.544.544.544 0 0 1-.54.544zm-10.856 0h-5.428a.544.544 0 0 1-.544-.544.544.544 0 0 1 .544-.544h5.428a.544.544 0 0 1 .544.544.544.544 0 0 1-.539.544zm-10.857 0h-5.428a.544.544 0 0 1-.544-.544.544.544 0 0 1 .544-.544h5.428a.544.544 0 0 1 .544.544.544.544 0 0 1-.537.544zm-10.856 0h-5.428a.544.544 0 0 1-.544-.544.544.544 0 0 1 .544-.544h5.428a.545.545 0 0 1 .544.544.545.545 0 0 1-.539.544zm-10.857 0h-5.428a.544.544 0 0 1-.544-.544.544.544 0 0 1 .544-.544h5.428a.544.544 0 0 1 .544.544.544.544 0 0 1-.539.544zm-10.857 0h-5.423a.544.544 0 0 1-.544-.544.544.544 0 0 1 .544-.544h5.428a.544.544 0 0 1 .544.544.544.544 0 0 1-.544.544zm-10.856 0h-5.428a.544.544 0 0 1-.544-.544.544.544 0 0 1 .544-.544h5.428a.544.544 0 0 1 .544.544.544.544 0 0 1-.539.544zm-10.857 0h-5.428a.545.545 0 0 1-.544-.544.545.545 0 0 1 .544-.544h5.428a.544.544 0 0 1 .544.544.544.544 0 0 1-.538.544zm-10.857 0a6.264 6.264 0 0 1-5.073-2.646.544.544 0 0 1 .13-.759.544.544 0 0 1 .759.13 5.178 5.178 0 0 0 4.191 2.187.544.544 0 0 1 .541.548.545.545 0 0 1-.542.54zm219.826-5.152h-.052a.545.545 0 0 1-.49-.594c.016-.165.024-.335.024-.506v-4.87a.544.544 0 0 1 .544-.544.544.544 0 0 1 .544.544v4.869c0 .206-.01.409-.029.61a.543.543 0 0 1-.535.491zm-225.5-2.475a.544.544 0 0 1-.544-.544v-5.428a.544.544 0 0 1 .544-.544.544.544 0 0 1 .544.544V79.6a.544.544 0 0 1-.541.546zm225.529-8.38a.544.544 0 0 1-.544-.544v-5.429a.544.544 0 0 1 .544-.544.543.543 0 0 1 .544.544v5.428a.544.544 0 0 1-.541.545zm-225.526-2.476a.544.544 0 0 1-.544-.544v-5.428a.544.544 0 0 1 .544-.544.544.544 0 0 1 .544.544v5.428a.544.544 0 0 1-.544.544zm225.529-8.382a.544.544 0 0 1-.544-.544v-5.428a.544.544 0 0 1 .544-.544.544.544 0 0 1 .544.544v5.428a.543.543 0 0 1-.544.545zm-225.529-2.475a.544.544 0 0 1-.544-.544v-5.427a.544.544 0 0 1 .544-.544.544.544 0 0 1 .544.544v5.427a.544.544 0 0 1-.544.544zm225.529-8.38a.544.544 0 0 1-.544-.544V44.08a.544.544 0 0 1 .544-.544.544.544 0 0 1 .544.544v5.428a.544.544 0 0 1-.544.545zm-225.529-2.475a.544.544 0 0 1-.544-.544v-5.429a.544.544 0 0 1 .544-.544.544.544 0 0 1 .544.544v5.428a.544.544 0 0 1-.544.545zm225.529-8.378a.544.544 0 0 1-.544-.544v-5.433a.544.544 0 0 1 .544-.544.544.544 0 0 1 .544.544v5.428a.543.543 0 0 1-.544.549zm-225.529-2.475a.544.544 0 0 1-.544-.544v-5.433a.544.544 0 0 1 .544-.544.544.544 0 0 1 .544.544v5.428a.544.544 0 0 1-.544.545zm225.529-8.38a.544.544 0 0 1-.544-.544v-1.955a5.127 5.127 0 0 0-.927-2.954.545.545 0 0 1 .135-.759.547.547 0 0 1 .758.135 6.213 6.213 0 0 1 1.123 3.578V27.8a.544.544 0 0 1-.545.54zm-225.505-2.474h-.049a.545.545 0 0 1-.493-.592 6.265 6.265 0 0 1 3.074-4.828.545.545 0 0 1 .745.195.545.545 0 0 1-.195.745 5.172 5.172 0 0 0-2.539 3.987.546.546 0 0 1-.543.488zm219.861-5.186h-5.493a.544.544 0 0 1-.544-.544.544.544 0 0 1 .544-.544h5.427a.573.573 0 0 1 .577.544.518.518 0 0 1-.511.54zm-10.921 0h-5.428a.544.544 0 0 1-.544-.544.544.544 0 0 1 .544-.544h5.428a.544.544 0 0 1 .544.544.544.544 0 0 1-.544.54zm-10.857 0h-5.428a.544.544 0 0 1-.544-.544.544.544 0 0 1 .544-.544h5.428a.544.544 0 0 1 .544.544.544.544 0 0 1-.543.54zm-10.857 0h-5.427a.544.544 0 0 1-.544-.544.544.544 0 0 1 .544-.544h5.427a.544.544 0 0 1 .544.544.544.544 0 0 1-.543.54zm-10.856 0h-5.428a.544.544 0 0 1-.544-.544.544.544 0 0 1 .544-.544h5.428a.544.544 0 0 1 .544.544.544.544 0 0 1-.543.54zm-10.857 0h-5.428a.544.544 0 0 1-.544-.544.544.544 0 0 1 .544-.544h5.428a.544.544 0 0 1 .544.544.544.544 0 0 1-.543.54zm-10.856 0h-5.428a.544.544 0 0 1-.544-.544.544.544 0 0 1 .544-.544h5.428a.544.544 0 0 1 .544.544.544.544 0 0 1-.543.54zm-10.857 0h-5.428a.544.544 0 0 1-.544-.544.544.544 0 0 1 .544-.544h5.428a.545.545 0 0 1 .544.544.545.545 0 0 1-.542.54zm-10.857 0h-5.428a.544.544 0 0 1-.544-.544.544.544 0 0 1 .544-.544h5.428a.544.544 0 0 1 .544.544.544.544 0 0 1-.542.54zm-10.856 0h-5.428a.544.544 0 0 1-.544-.544.544.544 0 0 1 .544-.544h5.428a.544.544 0 0 1 .544.544.544.544 0 0 1-.537.54zm-10.857 0h-5.428a.544.544 0 0 1-.544-.544.544.544 0 0 1 .544-.544h5.428a.544.544 0 0 1 .544.544.544.544 0 0 1-.542.54zm-10.857 0h-5.427a.544.544 0 0 1-.544-.544.544.544 0 0 1 .544-.544h5.427a.544.544 0 0 1 .544.544.544.544 0 0 1-.542.54zm-10.856 0h-5.423a.544.544 0 0 1-.544-.544.544.544 0 0 1 .544-.544h5.428a.544.544 0 0 1 .544.544.544.544 0 0 1-.547.54zm-10.857 0h-5.428a.544.544 0 0 1-.544-.544.544.544 0 0 1 .544-.544h5.428a.544.544 0 0 1 .544.544.544.544 0 0 1-.541.54zm-10.857 0h-5.427a.544.544 0 0 1-.544-.544.544.544 0 0 1 .544-.544h5.427a.544.544 0 0 1 .544.544.544.544 0 0 1-.541.54zm-10.856 0h-5.428a.544.544 0 0 1-.544-.544.544.544 0 0 1 .544-.544h5.428a.544.544 0 0 1 .544.544.544.544 0 0 1-.541.54zm-10.857 0h-5.428a.544.544 0 0 1-.544-.544.544.544 0 0 1 .544-.544h5.428a.544.544 0 0 1 .544.544.544.544 0 0 1-.54.54zm-10.856 0h-5.429a.544.544 0 0 1-.544-.544.544.544 0 0 1 .544-.544h5.429a.544.544 0 0 1 .544.544.544.544 0 0 1-.54.54zm-10.857 0h-5.428a.544.544 0 0 1-.544-.544.544.544 0 0 1 .544-.544h5.428a.545.545 0 0 1 .544.544.545.545 0 0 1-.54.54zm-10.857 0h-5.426a.544.544 0 0 1-.544-.544.544.544 0 0 1 .544-.544h5.427a.544.544 0 0 1 .544.544.544.544 0 0 1-.541.54z" class="cls-24" data-name="Path 2523" transform="translate(29.237 28.203)"/>
        <rect id="Rectangle_667" width="358.356" height="182.896" class="cls-25" data-name="Rectangle 667" rx="5.245" transform="translate(-852.18 -150.796)"/>
        <g id="Group_669" data-name="Group 669" transform="translate(-839.181 -133.922)">
            <path id="Path_2524" d="M-540.857-9.52h-309.9a.385.385 0 0 1-.385-.384v-137.059a.386.386 0 0 1 .385-.385.385.385 0 0 1 .384.385V-10.29h309.513a.386.386 0 0 1 .385.385.385.385 0 0 1-.382.385z" class="cls-20" data-name="Path 2524" transform="translate(871.147 147.348)"/>
            <g id="Group_666" data-name="Group 666" transform="translate(0 .973)">
                <path id="Path_2525" d="M-869.365-143.734a1.879 1.879 0 0 1 .667-.711 4.879 4.879 0 0 0 .591-.467.692.692 0 0 0 .206-.481.537.537 0 0 0-.119-.355.417.417 0 0 0-.337-.142.412.412 0 0 0-.41.225 1.111 1.111 0 0 0-.074.411h-.641a1.6 1.6 0 0 1 .156-.691.967.967 0 0 1 .938-.5 1.19 1.19 0 0 1 .848.295 1.021 1.021 0 0 1 .316.782 1.052 1.052 0 0 1-.223.662 2.164 2.164 0 0 1-.48.428l-.265.188c-.166.116-.279.2-.34.254a.755.755 0 0 0-.154.184h1.465v.581h-2.3a1.6 1.6 0 0 1 .156-.663z" class="cls-20" data-name="Path 2525" transform="translate(869.52 146.455)"/>
                <path id="Path_2526" d="M-865.041-146a2.616 2.616 0 0 1 .258 1.282 2.6 2.6 0 0 1-.258 1.28.947.947 0 0 1-.9.45.947.947 0 0 1-.9-.45 2.584 2.584 0 0 1-.258-1.28 2.6 2.6 0 0 1 .258-1.282.949.949 0 0 1 .9-.452.949.949 0 0 1 .9.452zm-1.289 2.168a.384.384 0 0 0 .39.307.377.377 0 0 0 .385-.307 3.281 3.281 0 0 0 .091-.886 3.245 3.245 0 0 0-.091-.9.374.374 0 0 0-.385-.292.381.381 0 0 0-.39.292 3.137 3.137 0 0 0-.095.9 3.172 3.172 0 0 0 .095.884z" class="cls-20" data-name="Path 2526" transform="translate(869.735 146.454)"/>
                <path id="Path_2527" d="M-862.619-146a2.606 2.606 0 0 1 .258 1.282 2.585 2.585 0 0 1-.258 1.28.947.947 0 0 1-.9.45.947.947 0 0 1-.9-.45 2.6 2.6 0 0 1-.258-1.28 2.617 2.617 0 0 1 .258-1.282.948.948 0 0 1 .9-.452.949.949 0 0 1 .9.452zm-1.288 2.168a.382.382 0 0 0 .389.307.377.377 0 0 0 .385-.307 3.281 3.281 0 0 0 .091-.886 3.245 3.245 0 0 0-.091-.9.374.374 0 0 0-.385-.292.379.379 0 0 0-.389.292 3.141 3.141 0 0 0-.095.9 3.176 3.176 0 0 0 .095.884z" class="cls-20" data-name="Path 2527" transform="translate(869.949 146.454)"/>
                <path id="Path_2528" d="M-860.2-146a2.618 2.618 0 0 1 .258 1.282 2.6 2.6 0 0 1-.258 1.28.949.949 0 0 1-.9.45.949.949 0 0 1-.9-.45 2.6 2.6 0 0 1-.258-1.28A2.617 2.617 0 0 1-862-146a.951.951 0 0 1 .9-.452.95.95 0 0 1 .9.452zm-1.289 2.168a.383.383 0 0 0 .39.307.377.377 0 0 0 .385-.307 3.281 3.281 0 0 0 .091-.886 3.245 3.245 0 0 0-.091-.9.374.374 0 0 0-.385-.292.381.381 0 0 0-.39.292 3.138 3.138 0 0 0-.095.9 3.173 3.173 0 0 0 .099.884z" class="cls-20" data-name="Path 2528" transform="translate(870.163 146.454)"/>
                <path id="Path_2529" d="M-869.354-117.027v-.448a2.952 2.952 0 0 0 .437-.042.625.625 0 0 0 .323-.175.581.581 0 0 0 .13-.242.574.574 0 0 0 .025-.134h.551v3.357h-.676v-2.315z" class="cls-20" data-name="Path 2529" transform="translate(869.535 148.966)"/>
                <path id="Path_2530" d="M-866.462-115.614a.637.637 0 0 0 .15.332.423.423 0 0 0 .323.116.439.439 0 0 0 .373-.172.713.713 0 0 0 .127-.434.755.755 0 0 0-.12-.434.42.42 0 0 0-.374-.176.661.661 0 0 0-.208.029.417.417 0 0 0-.233.207l-.591-.028.235-1.855h1.847v.561h-1.37l-.121.735a1.365 1.365 0 0 1 .238-.133 1 1 0 0 1 .349-.053 1.044 1.044 0 0 1 .725.281 1.04 1.04 0 0 1 .31.814 1.279 1.279 0 0 1-.3.832 1.085 1.085 0 0 1-.893.366 1.191 1.191 0 0 1-.787-.257 1 1 0 0 1-.342-.729z" class="cls-20" data-name="Path 2530" transform="translate(869.732 148.97)"/>
                <path id="Path_2531" d="M-862.619-117.638a2.6 2.6 0 0 1 .258 1.282 2.588 2.588 0 0 1-.258 1.28.949.949 0 0 1-.9.448.948.948 0 0 1-.9-.448 2.6 2.6 0 0 1-.258-1.28 2.611 2.611 0 0 1 .258-1.282.946.946 0 0 1 .9-.452.947.947 0 0 1 .9.452zm-1.288 2.167a.382.382 0 0 0 .389.307.377.377 0 0 0 .385-.307 3.278 3.278 0 0 0 .091-.885 3.234 3.234 0 0 0-.091-.9.373.373 0 0 0-.385-.292.378.378 0 0 0-.389.292 3.13 3.13 0 0 0-.095.9 3.173 3.173 0 0 0 .095.885z" class="cls-20" data-name="Path 2531" transform="translate(869.949 148.965)"/>
                <path id="Path_2532" d="M-860.2-117.638a2.612 2.612 0 0 1 .258 1.282 2.6 2.6 0 0 1-.258 1.28.95.95 0 0 1-.9.448.951.951 0 0 1-.9-.448 2.6 2.6 0 0 1-.258-1.28 2.612 2.612 0 0 1 .258-1.282.949.949 0 0 1 .9-.452.948.948 0 0 1 .9.452zm-1.289 2.167a.383.383 0 0 0 .39.307.377.377 0 0 0 .385-.307 3.277 3.277 0 0 0 .091-.885 3.234 3.234 0 0 0-.091-.9.373.373 0 0 0-.385-.292.379.379 0 0 0-.39.292 3.127 3.127 0 0 0-.095.9 3.169 3.169 0 0 0 .099.885z" class="cls-20" data-name="Path 2532" transform="translate(870.163 148.965)"/>
                <path id="Path_2533" d="M-869.354-88.664v-.448a2.844 2.844 0 0 0 .437-.041.619.619 0 0 0 .323-.176.584.584 0 0 0 .13-.241.59.59 0 0 0 .025-.135h.551v3.357h-.676v-2.315z" class="cls-20" data-name="Path 2533" transform="translate(869.535 151.477)"/>
                <path id="Path_2534" d="M-865.041-89.275a2.613 2.613 0 0 1 .258 1.282 2.6 2.6 0 0 1-.258 1.28.949.949 0 0 1-.9.45.949.949 0 0 1-.9-.45 2.587 2.587 0 0 1-.258-1.28 2.6 2.6 0 0 1 .258-1.282.947.947 0 0 1 .9-.452.947.947 0 0 1 .9.452zm-1.289 2.167a.384.384 0 0 0 .39.308.377.377 0 0 0 .385-.308 3.272 3.272 0 0 0 .091-.885 3.24 3.24 0 0 0-.091-.9.373.373 0 0 0-.385-.292.38.38 0 0 0-.39.292 3.132 3.132 0 0 0-.095.9 3.163 3.163 0 0 0 .095.885z" class="cls-20" data-name="Path 2534" transform="translate(869.735 151.475)"/>
                <path id="Path_2535" d="M-862.619-89.275a2.6 2.6 0 0 1 .258 1.282 2.588 2.588 0 0 1-.258 1.28.949.949 0 0 1-.9.45.949.949 0 0 1-.9-.45 2.6 2.6 0 0 1-.258-1.28 2.614 2.614 0 0 1 .258-1.282.946.946 0 0 1 .9-.452.947.947 0 0 1 .9.452zm-1.288 2.167a.382.382 0 0 0 .389.308.377.377 0 0 0 .385-.308 3.272 3.272 0 0 0 .091-.885 3.24 3.24 0 0 0-.091-.9.373.373 0 0 0-.385-.292.378.378 0 0 0-.389.292 3.136 3.136 0 0 0-.095.9 3.167 3.167 0 0 0 .095.885z" class="cls-20" data-name="Path 2535" transform="translate(869.949 151.475)"/>
                <path id="Path_2536" d="M-860.2-89.275a2.615 2.615 0 0 1 .258 1.282 2.6 2.6 0 0 1-.258 1.28.951.951 0 0 1-.9.45.951.951 0 0 1-.9-.45 2.6 2.6 0 0 1-.258-1.28 2.614 2.614 0 0 1 .258-1.282.949.949 0 0 1 .9-.452.948.948 0 0 1 .9.452zm-1.289 2.167a.383.383 0 0 0 .39.308.377.377 0 0 0 .385-.308 3.272 3.272 0 0 0 .091-.885 3.239 3.239 0 0 0-.091-.9.373.373 0 0 0-.385-.292.379.379 0 0 0-.39.292 3.133 3.133 0 0 0-.095.9 3.164 3.164 0 0 0 .099.885z" class="cls-20" data-name="Path 2536" transform="translate(870.163 151.475)"/>
                <path id="Path_2537" d="M-866.462-58.887a.633.633 0 0 0 .15.331.424.424 0 0 0 .323.118.439.439 0 0 0 .373-.172.713.713 0 0 0 .127-.434.755.755 0 0 0-.12-.434.421.421 0 0 0-.374-.177.66.66 0 0 0-.208.03.415.415 0 0 0-.233.206l-.591-.027.235-1.855h1.847v.561h-1.37l-.121.734a1.42 1.42 0 0 1 .238-.132 1 1 0 0 1 .349-.053 1.048 1.048 0 0 1 .725.28 1.044 1.044 0 0 1 .31.815 1.281 1.281 0 0 1-.3.832 1.088 1.088 0 0 1-.893.366 1.186 1.186 0 0 1-.787-.258 1 1 0 0 1-.342-.728z" class="cls-20" data-name="Path 2537" transform="translate(869.732 153.991)"/>
                <path id="Path_2538" d="M-862.619-60.912a2.606 2.606 0 0 1 .258 1.282 2.593 2.593 0 0 1-.258 1.281.949.949 0 0 1-.9.448.948.948 0 0 1-.9-.448 2.6 2.6 0 0 1-.258-1.281 2.617 2.617 0 0 1 .258-1.282.948.948 0 0 1 .9-.451.948.948 0 0 1 .9.451zm-1.288 2.168a.382.382 0 0 0 .389.307.377.377 0 0 0 .385-.307 3.281 3.281 0 0 0 .091-.886 3.245 3.245 0 0 0-.091-.9.374.374 0 0 0-.385-.292.379.379 0 0 0-.389.292 3.141 3.141 0 0 0-.095.9 3.176 3.176 0 0 0 .095.886z" class="cls-20" data-name="Path 2538" transform="translate(869.949 153.986)"/>
                <path id="Path_2539" d="M-860.2-60.912a2.618 2.618 0 0 1 .258 1.282 2.6 2.6 0 0 1-.258 1.281.95.95 0 0 1-.9.448.951.951 0 0 1-.9-.448 2.6 2.6 0 0 1-.258-1.281 2.617 2.617 0 0 1 .258-1.282.95.95 0 0 1 .9-.451.949.949 0 0 1 .9.451zm-1.289 2.168a.383.383 0 0 0 .39.307.377.377 0 0 0 .385-.307 3.281 3.281 0 0 0 .091-.886 3.244 3.244 0 0 0-.091-.9.374.374 0 0 0-.385-.292.381.381 0 0 0-.39.292 3.138 3.138 0 0 0-.095.9 3.173 3.173 0 0 0 .099.886z" class="cls-20" data-name="Path 2539" transform="translate(870.163 153.986)"/>
                <path id="Path_2540" d="M-860.2-32.548a2.612 2.612 0 0 1 .258 1.282 2.6 2.6 0 0 1-.258 1.28.95.95 0 0 1-.9.448.951.951 0 0 1-.9-.448 2.6 2.6 0 0 1-.258-1.28 2.612 2.612 0 0 1 .258-1.282.949.949 0 0 1 .9-.452.948.948 0 0 1 .9.452zm-1.289 2.167a.383.383 0 0 0 .39.307.377.377 0 0 0 .385-.307 3.277 3.277 0 0 0 .091-.885 3.234 3.234 0 0 0-.091-.9.373.373 0 0 0-.385-.292.379.379 0 0 0-.39.292 3.127 3.127 0 0 0-.095.9 3.169 3.169 0 0 0 .099.885z" class="cls-20" data-name="Path 2540" transform="translate(870.163 156.496)"/>
            </g>
            <g id="Group_667" data-name="Group 667" transform="translate(28.558 146.304)">
                <path id="Path_2541" d="M-842.61-10.823v.079a1.557 1.557 0 0 0 .082.556.3.3 0 0 0 .311.161.306.306 0 0 0 .313-.176.958.958 0 0 0 .046-.352v-2.387h.713v2.375a1.38 1.38 0 0 1-.147.69.949.949 0 0 1-.9.43.954.954 0 0 1-.871-.348 1.743 1.743 0 0 1-.222-.949v-.079z" class="cls-20" data-name="Path 2541" transform="translate(843.284 12.941)"/>
                <path id="Path_2542" d="M-839.63-12.941h.807l1.207 3.412h-.773l-.225-.7h-1.257l-.231.7h-.746zm-.048 2.123h.874l-.431-1.342z" class="cls-20" data-name="Path 2542" transform="translate(843.5 12.941)"/>
                <path id="Path_2543" d="M-837.491-12.941h.748l1.354 2.379v-2.379h.665v3.412h-.713l-1.39-2.422v2.422h-.664z" class="cls-20" data-name="Path 2543" transform="translate(843.797 12.941)"/>
                <path id="Path_2544" d="M-799.024-12.936h2.433v.6h-1.725v.785h1.512v.593h-1.512v1.43h-.707z" class="cls-20" data-name="Path 2544" transform="translate(847.201 12.941)"/>
                <path id="Path_2545" d="M-793.843-12.337h-1.8v.725h1.658v.592h-1.658v.877h1.889v.614h-2.586v-3.412h2.5z" class="cls-20" data-name="Path 2545" transform="translate(847.439 12.941)"/>
                <path id="Path_2546" d="M-790.915-12.577a.867.867 0 0 1 .157.52.758.758 0 0 1-.158.5.824.824 0 0 1-.26.195.757.757 0 0 1 .394.3.9.9 0 0 1 .133.5 1 1 0 0 1-.151.544.956.956 0 0 1-.242.269.954.954 0 0 1-.386.172 2.387 2.387 0 0 1-.482.046h-1.537v-3.412h1.649a1.046 1.046 0 0 1 .883.366zm-1.853.229v.753h.829a.679.679 0 0 0 .36-.085.321.321 0 0 0 .139-.3.306.306 0 0 0-.184-.316 1.3 1.3 0 0 0-.4-.053zm0 1.318v.909h.828a.807.807 0 0 0 .346-.06.429.429 0 0 0 .224-.426.367.367 0 0 0-.218-.366.854.854 0 0 0-.341-.058z" class="cls-20" data-name="Path 2546" transform="translate(847.695 12.941)"/>
                <path id="Path_2547" d="M-767.41-12.941h1.025v3.412h-.665v-2.308-.28-.276l-.647 2.864h-.693l-.642-2.864v2.864h-.663v-3.412h1.036l.622 2.683z" class="cls-20" data-name="Path 2547" transform="translate(849.798 12.941)"/>
                <path id="Path_2548" d="M-765.052-12.941h.808l1.207 3.412h-.774l-.224-.7h-1.257l-.232.7h-.746zm-.047 2.123h.874l-.431-1.342z" class="cls-20" data-name="Path 2548" transform="translate(850.101 12.941)"/>
                <path id="Path_2549" d="M-760.717-12.853a.836.836 0 0 1 .32.238 1.036 1.036 0 0 1 .171.287.947.947 0 0 1 .063.358 1.027 1.027 0 0 1-.122.479.69.69 0 0 1-.4.332.632.632 0 0 1 .334.27 1.109 1.109 0 0 1 .1.533v.229a1.671 1.671 0 0 0 .02.318.279.279 0 0 0 .132.194v.086h-.787c-.022-.076-.037-.137-.047-.183a1.75 1.75 0 0 1-.03-.294v-.318a.646.646 0 0 0-.112-.434.576.576 0 0 0-.407-.109h-.7v1.338h-.7v-3.412h1.632a1.49 1.49 0 0 1 .533.088zm-1.473.5v.918h.767a.817.817 0 0 0 .343-.056.386.386 0 0 0 .2-.384.43.43 0 0 0-.2-.417.708.708 0 0 0-.33-.061z" class="cls-20" data-name="Path 2549" transform="translate(850.4 12.941)"/>
                <path id="Path_2550" d="M-724.655-12.941h.807l1.207 3.412h-.774l-.224-.7h-1.261l-.232.7h-.746zm-.048 2.123h.874l-.431-1.342z" class="cls-20" data-name="Path 2550" transform="translate(853.676 12.941)"/>
                <path id="Path_2551" d="M-720.216-11.006a1.305 1.305 0 0 1-.857.25h-.71v1.227h-.709v-3.412h1.465a1.179 1.179 0 0 1 .808.265 1.027 1.027 0 0 1 .3.816 1.061 1.061 0 0 1-.297.854zm-.544-1.229a.572.572 0 0 0-.38-.114h-.642v1.006h.642a.546.546 0 0 0 .38-.123.5.5 0 0 0 .136-.39.469.469 0 0 0-.136-.379z" class="cls-20" data-name="Path 2551" transform="translate(853.976 12.941)"/>
                <path id="Path_2552" d="M-717.415-12.853a.836.836 0 0 1 .32.238 1.036 1.036 0 0 1 .171.287.947.947 0 0 1 .063.358 1.026 1.026 0 0 1-.122.479.69.69 0 0 1-.4.332.632.632 0 0 1 .334.27 1.122 1.122 0 0 1 .1.533v.229a1.67 1.67 0 0 0 .02.318.281.281 0 0 0 .131.194v.086h-.786c-.023-.076-.037-.137-.047-.183a1.737 1.737 0 0 1-.031-.294v-.318a.645.645 0 0 0-.112-.434.575.575 0 0 0-.407-.109h-.7v1.338h-.7v-3.412h1.633a1.49 1.49 0 0 1 .533.088zm-1.473.5v.918h.767a.808.808 0 0 0 .342-.056.384.384 0 0 0 .2-.384.429.429 0 0 0-.2-.417.7.7 0 0 0-.329-.061z" class="cls-20" data-name="Path 2552" transform="translate(854.233 12.941)"/>
                <path id="Path_2553" d="M-694.037-12.941h1.025v3.412h-.664v-2.308-.28-.276l-.647 2.864h-.693l-.642-2.864v2.864h-.664v-3.412h1.037l.62 2.683z" class="cls-20" data-name="Path 2553" transform="translate(856.293 12.941)"/>
                <path id="Path_2554" d="M-691.678-12.941h.807l1.207 3.412h-.774l-.224-.7h-1.257l-.232.7h-.746zm-.048 2.123h.874l-.431-1.342z" class="cls-20" data-name="Path 2554" transform="translate(856.595 12.941)"/>
                <path id="Path_2555" d="M-687.958-12.941h.808l-1.141 2.133v1.279H-689v-1.279l-1.181-2.133h.84l.708 1.486z" class="cls-20" data-name="Path 2555" transform="translate(856.835 12.941)"/>
                <path id="Path_2556" d="M-637.165-10.823v.079a1.557 1.557 0 0 0 .082.556.3.3 0 0 0 .312.161.3.3 0 0 0 .312-.176.958.958 0 0 0 .047-.352v-2.387h.712v2.375a1.38 1.38 0 0 1-.147.69.947.947 0 0 1-.9.43.954.954 0 0 1-.871-.348 1.752 1.752 0 0 1-.222-.949v-.079z" class="cls-20" data-name="Path 2556" transform="translate(861.469 12.941)"/>
                <path id="Path_2557" d="M-635.18-12.941h.724v2.1a1.182 1.182 0 0 0 .083.513.551.551 0 0 0 .563.287.549.549 0 0 0 .561-.287 1.183 1.183 0 0 0 .083-.513v-2.1h.725v2.1a1.764 1.764 0 0 1-.169.847 1.254 1.254 0 0 1-1.2.556 1.26 1.26 0 0 1-1.2-.556 1.765 1.765 0 0 1-.168-.847z" class="cls-20" data-name="Path 2557" transform="translate(861.704 12.941)"/>
                <path id="Path_2558" d="M-632.045-12.941h.746l1.355 2.379v-2.379h.665v3.412h-.713l-1.39-2.422v2.422h-.663z" class="cls-20" data-name="Path 2558" transform="translate(861.981 12.941)"/>
                <path id="Path_2559" d="M-593.141-10.823v.079a1.585 1.585 0 0 0 .08.556.308.308 0 0 0 .314.161.306.306 0 0 0 .312-.176.959.959 0 0 0 .046-.352v-2.387h.713v2.375a1.381 1.381 0 0 1-.147.69.947.947 0 0 1-.9.43.955.955 0 0 1-.872-.348 1.743 1.743 0 0 1-.222-.949v-.079z" class="cls-20" data-name="Path 2559" transform="translate(865.365 12.941)"/>
                <path id="Path_2560" d="M-591.157-12.941h.725v2.1a1.2 1.2 0 0 0 .083.513.552.552 0 0 0 .564.287.548.548 0 0 0 .559-.287 1.176 1.176 0 0 0 .084-.513v-2.1h.724v2.1a1.749 1.749 0 0 1-.169.847 1.254 1.254 0 0 1-1.2.556 1.261 1.261 0 0 1-1.2-.556 1.764 1.764 0 0 1-.169-.847z" class="cls-20" data-name="Path 2560" transform="translate(865.601 12.941)"/>
                <path id="Path_2561" d="M-588.012-12.941h.714v2.8h1.7v.614h-2.418z" class="cls-20" data-name="Path 2561" transform="translate(865.879 12.941)"/>
            </g>
            <g id="Group_668" data-name="Group 668" transform="translate(20.007)">
                <path id="Path_2562" d="M-795.589-9.52a.384.384 0 0 1-.384-.384v-137.059a.385.385 0 0 1 .384-.385.385.385 0 0 1 .385.385V-9.9a.384.384 0 0 1-.385.38z" class="cls-20" data-name="Path 2562" transform="translate(856.023 147.348)"/>
                <path id="Path_2563" d="M-708.406-9.52a.384.384 0 0 1-.384-.384v-137.059a.385.385 0 0 1 .384-.385.386.386 0 0 1 .385.385V-9.9a.385.385 0 0 1-.385.38z" class="cls-20" data-name="Path 2563" transform="translate(863.74 147.348)"/>
                <path id="Path_2564" d="M-621.223-9.52a.384.384 0 0 1-.384-.384v-137.059a.385.385 0 0 1 .384-.385.386.386 0 0 1 .385.385V-9.9a.385.385 0 0 1-.385.38z" class="cls-20" data-name="Path 2564" transform="translate(871.457 147.348)"/>
                <path id="Path_2565" d="M-540.857-116.8h-309.9a.386.386 0 0 1-.385-.385.385.385 0 0 1 .385-.384h309.9a.385.385 0 0 1 .385.384.386.386 0 0 1-.385.385z" class="cls-20" data-name="Path 2565" transform="translate(851.14 149.984)"/>
                <path id="Path_2566" d="M-540.857-87.28h-309.9a.385.385 0 0 1-.385-.384.386.386 0 0 1 .385-.385h309.9a.386.386 0 0 1 .385.385.385.385 0 0 1-.385.384z" class="cls-20" data-name="Path 2566" transform="translate(851.14 152.597)"/>
                <path id="Path_2567" d="M-540.857-57.764h-309.9a.386.386 0 0 1-.385-.385.386.386 0 0 1 .385-.385h309.9a.386.386 0 0 1 .385.385.386.386 0 0 1-.385.385z" class="cls-20" data-name="Path 2567" transform="translate(851.14 155.209)"/>
            </g>
            <path id="Path_2568" fill="url(#linear-gradient-13)" d="M-541.023-86.473C-562.358-85.083-555.24-70.563-582-62.8c-12.048 3.494-23.081 2.823-37.878-2.941-24.224-9.434-37.077-51.705-54.7-51.468-23.442.316-37.943 55-67.106 54.348-28.4-.64-24.866-37.2-56.155-37.2-29.338 0-51.787 36-52.944 38v49.491h309.9z" data-name="Path 2568" transform="translate(871.178 150.015)"/>
            <path id="Path_2569" fill="url(#linear-gradient-14)" d="M-850.786-55.25c21.186-17.85 46.106-.677 60.049 17.65 1.819 2.39 3.339 5.013 6.715 6.174 11.222 3.862 20.13-16.253 36.571-19 18.483-3.083 24.865 19.396 43.218 20.426 31.517 1.768 45.549-62.669 73.141-61.267 25.813 1.313 35.437 58.819 57.468 56.992 17.148-1.422 17.83-37.792 32.737-35.619v55.029h-309.9z" data-name="Path 2569" transform="translate(871.178 152.31)"/>
        </g>
        <rect id="Rectangle_668" width="128.51" height="182.896" class="cls-25" data-name="Rectangle 668" rx="5.245" transform="translate(-479.649 -150.796)"/>
        <g id="Group_670" data-name="Group 670" transform="translate(-458.484 -130.778)">
            <path id="Path_2570" fill="url(#linear-gradient-15)" d="M-451.155-73.668l-5.145-5.142a33.581 33.581 0 0 0 0-47.437l5.141-5.141a40.859 40.859 0 0 1 .004 57.72z" data-name="Path 2570" transform="translate(525.398 145.618)"/>
            <path id="Path_2571" fill="url(#linear-gradient-16)" d="M-497.7-123.466l-8.388-8.388a43.158 43.158 0 0 1 60.967 0l-8.388 8.388a31.282 31.282 0 0 0-44.191 0z" data-name="Path 2571" transform="translate(520.991 144.46)"/>
            <path id="Path_2572" fill="url(#linear-gradient-17)" d="M-506.5-70.157a45.458 45.458 0 0 1 0-64.214l11.635 11.635a28.983 28.983 0 0 0 0 40.943 28.984 28.984 0 0 0 40.943 0l11.634 11.635a45.456 45.456 0 0 1-64.212.001z" data-name="Path 2572" transform="translate(519.779 145.354)"/>
            <path id="Path_2573" fill="url(#linear-gradient-18)" d="M-492.494-42.475h-22.919a4.365 4.365 0 0 1-4.366-4.366 4.366 4.366 0 0 1 4.366-4.366h22.919a4.367 4.367 0 0 1 4.367 4.366 4.366 4.366 0 0 1-4.367 4.366z" data-name="Path 2573" transform="translate(519.779 152.715)"/>
            <path id="Path_2574" fill="url(#linear-gradient-19)" d="M-473.78-29h-41.633a4.366 4.366 0 0 1-4.366-4.366 4.366 4.366 0 0 1 4.366-4.367h41.633a4.367 4.367 0 0 1 4.366 4.367A4.366 4.366 0 0 1-473.78-29z" data-name="Path 2574" transform="translate(519.779 153.908)"/>
            <path id="Path_2575" fill="url(#linear-gradient-20)" d="M-460.843-15.52h-54.57a4.366 4.366 0 0 1-4.366-4.366 4.365 4.365 0 0 1 4.366-4.366h54.57a4.365 4.365 0 0 1 4.366 4.366 4.366 4.366 0 0 1-4.366 4.366z" data-name="Path 2575" transform="translate(519.779 155.101)"/>
        </g>
        <g id="Group_672" data-name="Group 672" transform="translate(-1133.486 3.65)">
            <path id="Path_2576" fill="url(#linear-gradient-21)" d="M-1104.027 153.422c-.239 1.232-2.164 2.674-2.164 4s5.164 4.373 7.157 6.365 6.423 5.652 8.782 5.9 5.793.038 5.712-.531-1.535-2.378-2.386-4.518a57.8 57.8 0 0 0-4.545-9.588c-1.848-2.95-12.556-1.628-12.556-1.628z" data-name="Path 2576" transform="translate(1142.876 36.372)"/>
            <path id="Path_2577" fill="url(#linear-gradient-22)" d="M-1106.106 156.757a2.694 2.694 0 0 0-1.491 3.883c.833 1.387 2.219 3.57 2.254 5.3s0 7.973 0 7.973a.66.66 0 0 0 .728.625c.693-.035.935-.451.935-.693s-.589-9.847 0-9.915 2.115-.659 3.156.659 5.547 7.211 6.483 8.286 4.091 2.393 6.726 2.358 9.6-.485 10.157-1.214-4.933-4.085-6.171-5.27c-1.772-1.7-3.12-.659-6.309-.9s-5.755-2.393-7.524-4.368-7.385-7.281-8.944-6.724z" data-name="Path 2577" transform="translate(1142.72 36.69)"/>
            <path id="Path_2578" d="M-1109.355 158.47c-.24 1.232-2.164 2.674-2.164 4s5.164 4.373 7.157 6.365 6.423 5.652 8.782 5.9 5.793.037 5.711-.532-1.535-2.377-2.386-4.518a57.845 57.845 0 0 0-4.546-9.588c-1.846-2.949-12.554-1.627-12.554-1.627z" class="cls-16" data-name="Path 2578" transform="translate(1142.404 36.819)"/>
            <path id="Path_2579" fill="url(#linear-gradient-23)" d="M-1106.076 63.678c1.128 2.6 7.637 16.837 8.506 18.746s7.984 17.966 9.026 20.049.52 6.162-.955 9.634-2.633 12.932-2.879 16.49-.939 12.411-.854 14.495 4.148 18.558 3.648 19.673-5.126 2.395-6.8 1.782-3.577-12.352-4.034-17.765-.839-22.564 1.067-28.663 2.287-15.322.533-18.067-16.661-30.272-17.314-33.348 3.449-6.711 5.127-6.9 4.929 3.874 4.929 3.874z" data-name="Path 2579" transform="translate(1141.99 28.112)"/>
            <path id="Path_2580" d="M-1127.2 42.21c-2.985.918-13.625 9.72-12.63 19.9s15.319 27.849 18.137 32.31 13.176 15.337 12.4 20.331-3.356 12.875-3.043 17.557 5.039 24.662 5.039 27.685-.661 9.163.85 10.2 7.935 2.362 10.58 1.417 2.928-1.417 2.928-3.117-4.345-15.585-4.156-20.592.85-23.237 2.644-26.921 5.2-9.068 3.873-12.752-14.17-31.828-16.248-35.328-6.7-16.058-8.261-18.608S-1127.2 42.21-1127.2 42.21z" class="cls-17" data-name="Path 2580" transform="translate(1139.893 26.554)"/>
            <path id="Path_2581" fill="url(#linear-gradient-24)" d="M-1083.456 17.8c-5.512 3.984-24.094 19.888-27.86 21.6s-15.84 1.884-17.638 4.795 2.055 9.161 5.479 11.816 13.014 11.473 14.042 12.842 3.681 1.455 9.161-1.712 19.436-11.2 21.49-11.421 7.878 1.66 11.388.889 10.176-16.9 10.892-19.168 2.26-7.813 2.168-10.448-11.264-11.083-16.534-11.083-12.588 1.89-12.588 1.89z" data-name="Path 2581" transform="translate(1140.821 24.227)"/>
            <path id="Path_2582" fill="url(#linear-gradient-25)" d="M-1050.847 21.283c-1.467 2.012-4.6 5.365-6.31 6.185s-6.165-4.177-5.116-7 5.65-6.568 7.022-6.715 4.404 7.53 4.404 7.53z" data-name="Path 2582" transform="translate(1146.749 24.035)"/>
            <path id="Path_2583" fill="url(#linear-gradient-26)" d="M-1056.263 31.732a116.073 116.073 0 0 0-1.822 18.221 49.211 49.211 0 0 0 2.092 11.51c.574 1.663 4.3 9.521 4.99 11.413s3.785 9.062 3.785 9.062v5.448l-3.269 1.491s-6.466-8.029-8.48-12.5-6.792-22.935-8.232-28.536-2.56-17.6-1.12-19.925 3.281-5.85 4.721-6.325 7.335 10.141 7.335 10.141z" data-name="Path 2583" transform="translate(1146.169 24.728)"/>
            <path id="Path_2584" fill="url(#linear-gradient-27)" d="M-922.96 153.187c-2.033 1.214-4.338 4.978-6.986 6.257s-6.9 3.1-8.539 3.1-5.983-.046-6.667.913a2.392 2.392 0 0 0-.229 2.649 9.093 9.093 0 0 0 5.617 2.786c3.06.182 16.987-.046 19.545.319s6.347 1.6 10.548 1.37 6.713-2.055 6.759-2.694-.137-5.526-1.918-8.4-12.696-9.542-18.13-6.3z" data-name="Path 2584" transform="translate(1157.083 36.301)"/>
            <path id="Path_2585" fill="url(#linear-gradient-28)" d="M-907.144 166.2c-2.4 1.173-4.724 7.046-6.692 8.266s-7.362 4.882-9.094 4.96-4.8-.078-5.63 2.2 1.694 2.243 4.1 3.227a35.428 35.428 0 0 0 13.227 2.323c4.959-.275 8.7-2.323 12.754-2.519s8.581-.591 9.289-1.772-.078-8.03-.59-8.739-12.996-10.077-17.364-7.946z" data-name="Path 2585" transform="translate(1158.585 37.502)"/>
            <path id="Path_2586" fill="url(#linear-gradient-29)" d="M-907.743 67.373c-.109 1.434-.662 3.241-2.7 5.727s-9.345 10.023-14.168 17.86-8.892 12.886-7.384 17.86 4.747 12.886 6.028 20.12a190.183 190.183 0 0 1 2.261 23.889c-.075 3.467-1.606 5.7-1.443 6.671s1.055 4.422 3.489 6.288 6.086 6.369 9.25 6.571 5.753-.381 6.491-1.488 5.953-18.933 3.27-28.324-9.3-34.289-5.1-39.955 17.321-22.968 17.172-29.075 1.49-10.879-6.113-11.177a12.753 12.753 0 0 0-11.053 5.033z" data-name="Path 2586" transform="translate(1158.267 28.335)"/>
            <path id="Path_2587" d="M-898.66 65.56a255.632 255.632 0 0 0-16.247 28.84c-5.29 11.21-8.313 18.137-5.794 23.8s8.817 20.152 9.572 31.613.262 19.524 1 21.96 2.065 5.462 3.246 5.609a44.382 44.382 0 0 1 9.6 3.913c2.509 1.55 5.831 4.281 7.16 3.838s1.771-3.4.59-4.872a12.863 12.863 0 0 1-2.362-8.857c.443-3.913.019-12.381-.73-18.282s-2.161-26.181-4.82-31-.333-9.392 5.153-14.878a108.6 108.6 0 0 0 12.633-14.794c3.324-4.737 11.3-10.8 13.214-15.625s2.914-10.19 2.83-12.35a10.479 10.479 0 0 0-7.235-10.007c-6.406-2.156-27.81 11.092-27.81 11.092z" class="cls-17" data-name="Path 2587" transform="translate(1159.215 27.619)"/>
            <path id="Path_2588" fill="url(#linear-gradient-30)" d="M-944.622 40.725c-.1 2.3-1.74 11.773-1.536 13.872s.221 7.371-1.629 8.856-13.173 22.015-16.242 25.65-9.692 8-9.774 9.774 4.038 7.189 6.865 7.189 17.91-13.873 21.416-20.056S-933.608 64.3-932.993 60s1.968-19.984 1.107-23.094-12.736 3.819-12.736 3.819z" data-name="Path 2588" transform="translate(1154.594 26.014)"/>
            <path id="Rectangle_669" d="M0 0H92.327V57.817H0z" class="cls-21" data-name="Rectangle 669" transform="rotate(-2.77 1808.187 -1922.149)"/>
            <g id="Group_671" data-name="Group 671" transform="translate(104.544 95.766)">
                <path id="Rectangle_670" d="M0 0H14.077V14.077H0z" class="cls-22" data-name="Rectangle 670" transform="rotate(-2.56 550.718 11.972)"/>
                <path id="Rectangle_671" d="M0 0H14.077V29.308H0z" class="cls-22" data-name="Rectangle 671" transform="rotate(-2.56 209.113 -426.193)"/>
                <path id="Rectangle_672" d="M0 0H14.077V22.256H0z" class="cls-22" data-name="Rectangle 672" transform="rotate(-2.56 351.673 -875.942)"/>
                <path id="Rectangle_673" d="M0 0H14.077V35.993H0z" class="cls-22" data-name="Rectangle 673" transform="rotate(-2.56 42.541 -1314.901)"/>
            </g>
            <path id="Path_2589" fill="url(#linear-gradient-31)" d="M-947.52 23.911c-.52 1.848-2.469 4.549-2.38 5.92s2.18 9.784 2.264 10.8-.8 2.966 3.8 2.966 5.4-.443 5.577-1.151.266-11.289-1.106-14.078-8.155-4.457-8.155-4.457z" data-name="Path 2589" transform="translate(1156.71 24.935)"/>
            <path id="Path_2590" d="M-968.675-5.185s1.032 8.73 2.1 10.088-.36 6.94-.022 7.451 2.85-.524 3.183.4 4.041 8.177 6.667 7.775 5.01-3.458 5.01-3.458a84.306 84.306 0 0 0 9.949 11.138s4.8-10.7 5.566-20.2c0 0-2.149.308-2.925-2.577s-16.198-26.242-29.528-10.617z" class="cls-16" data-name="Path 2590" transform="translate(1155.048 21.887)"/>
            <path id="Path_2591" d="M-976.784-10a10.785 10.785 0 0 0 7.009-1.043c3.092-1.878 15.71-13.363 23-8.892s8.483 15.871 7.971 19.32 1.816 8.094 1.326 8.1-8.083.095-9.366-3.761S-951.2-5.7-954.378-4.3s.822 9.069-.557 9.432-2.8-7.669-4.852-7.7-4.2-.128-4.084-1.3-3.915.065-5.817-.485-7.612-2.69-7.096-5.647z" class="cls-20" data-name="Path 2591" transform="translate(1154.327 20.963)"/>
            <path id="Path_2592" fill="url(#linear-gradient-32)" d="M-939.534 6.232a1.488 1.488 0 0 1 1.96-.705c1.254.627 15.431 5.814 22.427 8.3s37.592 25.732 42.81 33.8 8.657 12.1 7 14.113-14.7 7.233-18.855 7.233-20.677 5.438-22.283 4.877-.481-4.736-2.488-4.9-16.908-9.011-22.643-16-11.4-13.29-12.45-14.829-.29-5.476-1.484-8.675c-.778-2.085-3.993-2.252-1.074-5.554 2.05-2.325 4.252-4.011 7.08-17.66z" data-name="Path 2592" transform="translate(1156.894 23.293)"/>
            <path id="Path_2593" d="M-918.682 39.112c.217 3.9-2.021 14.3-4.331 20.939s-3.105 10.831-6.5 16.029-11.4 17.437-18.2 22.937-9.522 13.543-11.948 15.081-8.279 2.365-11.769 1.952-5.288-2.442-4.788-2.549 3.176-.642 4.247-1.784 3.284-2.606 1.785-4.855-5.033 1.32-6.283 1.32-2.82-.2-3.335-1.59 2.063-1.708 3.062-2 9.153-3.867 10.925-4.125a8.181 8.181 0 0 0 5.738-2.932c1.579-2.127 14.121-22.251 17.639-27.048s4.564-9.662 4.288-12.7 1.45-13.389 2.348-15.224a13.063 13.063 0 0 1 9.669-6.876c5.593-.687 7.453 3.425 7.453 3.425z" class="cls-16" data-name="Path 2593" transform="translate(1154.057 25.97)"/>
            <path id="Path_2594" fill="url(#linear-gradient-33)" d="M-941.516 24.563c-.223 3.962.064 21.162 1.568 21.162s8.671-4.085 11.538-4.157 6.02.43 7.023.216 2.866-1.505 2.22-4.443 2.939-8.241 3.011-10.319-1.935-10.177-10.822-10.463-14.538 8.004-14.538 8.004z" data-name="Path 2594" transform="translate(1157.446 24.283)"/>
            <path id="Path_2595" fill="url(#linear-gradient-34)" d="M-1042.207 22.644c.123-1.534 3.858-7.96 3.249-9.6s-2.413-4.438-4.24-3.621c-1.379.616-5.139 7.435-6.9 10.741-1.125 1.627-2.051 3.5-2.01 4.469.267 6.269 9.982 5.106 11.084 9.173.554 2.045.469 5.33 2.894 5.4s5.6-2.332 4.529-5.1c-.769-2.006-8.728-9.928-8.606-11.462z" data-name="Path 2595" transform="translate(1147.663 23.639)"/>
            <path id="Path_2596" d="M-1087.12 18.17c8.01-6.994 17.092-6.051 21.9-6.38 4.406-.3 1.749 18.612 1.933 22.017s-.827 10.859 0 14.816 1.657 13.621 3.13 16.2 11.017 16.992 14.618 24.923 7.125 12.4 8.107 12.827a60.556 60.556 0 0 1 6.449 4.73c1.9 1.536 5.019 4.456 4.585 5.124a2.63 2.63 0 0 1-2.971.835c-1.068-.534-4.039-4.44-4.473-4.374s-.234 2.437 0 3.372 1.278 4.98 1.771 4.98 1.447 1.512.4 2.039-2.927-.527-3.189-.428-.888 1.217-1.578 1.217-1.546-.789-1.874-.756-.691.954-1.184.986-1.118-.625-1.414-.592-.756.494-1.151.46-3.025-1.479-3.354-2.368-.428-6.115-.493-7.76 0-4.735-1.15-6.214-13.351-19.573-14.5-21.492-9.106-19.393-9.755-21.542-4.46-11.84-4.946-14.395-1.3-7.946-1.986-8.19a15.016 15.016 0 0 1-8.244-7.7c-2.568-5.519-1.26-11.786-.631-12.335z" class="cls-16" data-name="Path 2596" transform="translate(1144.485 23.862)"/>
            <path id="Path_2597" d="M-1050.06-2.835c-1.495.779-2.236 3.036-2.768 5.221s-1.915 5.634-3.73 6.91-2.18 4.5-1.24 5.721 2.661 3.206 2.638 4.439 3.316 4.351 4.979 4.33 7.938-5.961 8.421-10.52 0-12.078-1.063-14.033-5.046-3.21-7.237-2.068z" class="cls-16" data-name="Path 2597" transform="translate(1147.115 22.529)"/>
            <path id="Path_2598" d="M-1058.3-10.6c-5.106 2.031-8.453 9.323-8.706 15s.95 13.414-.449 18.577-3.881 9.845-2.065 10.64 5.362-8.535 5.645-7.721 2.1 7.368 5.325 8.93 7.712 3.98 7.1 6 1.33 3.337 3.37 2.972 3-5.149-.283-7.715-5.4-2.916-5.395-5.939-1.338-6.467-.783-8.009a5.488 5.488 0 0 0-1.469-6.264c-2.2-1.745 2.245-4.373 3.725-7.339s3.919-10.885 6.351-9.791 6.507 16.275 6.239 17.965-4.074 7.937-2.073 11.731 7.74 7.7 9.531 6.182c6.682-5.665-5.173-7.2-3.2-10.909 1.037-1.951 3.451-7.627 1.274-12.745s.417-6.19-2.11-10.674-9.597-15.834-22.027-10.891z" class="cls-20" data-name="Path 2598" transform="translate(1146.066 21.772)"/>
            <path id="Path_2599" fill="url(#linear-gradient-35)" d="M-1111.434 161.805a2.694 2.694 0 0 0-1.491 3.883c.833 1.387 2.219 3.571 2.254 5.3s0 7.974 0 7.974a.659.659 0 0 0 .728.624c.692-.035.935-.451.935-.693s-.589-9.846 0-9.915 2.115-.659 3.156.659 5.547 7.211 6.483 8.286 4.09 2.393 6.725 2.358 9.6-.485 10.158-1.214-4.933-4.085-6.171-5.269c-1.772-1.7-3.12-.659-6.309-.9s-5.755-2.393-7.524-4.368-7.385-7.28-8.944-6.725z" data-name="Path 2599" transform="translate(1142.248 37.137)"/>
        </g>
        <path id="Path_2600" d="M-468.164 48.146h-5.436a1.758 1.758 0 0 1-1.759-1.758v-5.433a1.758 1.758 0 0 0-1.758-1.758h-4.083a1.758 1.758 0 0 0-1.758 1.758v5.433a1.758 1.758 0 0 1-1.758 1.758h-5.433a1.76 1.76 0 0 0-1.759 1.759v4.085a1.76 1.76 0 0 0 1.759 1.759h5.433a1.758 1.758 0 0 1 1.758 1.758v5.433a1.758 1.758 0 0 0 1.758 1.76h4.086a1.758 1.758 0 0 0 1.758-1.758v-5.435a1.758 1.758 0 0 1 1.759-1.758h5.433a1.759 1.759 0 0 0 1.758-1.759V49.9a1.759 1.759 0 0 0-1.758-1.754z" class="cls-24" data-name="Path 2600" transform="translate(63.762 29.938)"/>
        <path id="Path_2601" d="M-595.021 48.146h-5.434a1.758 1.758 0 0 1-1.758-1.758v-5.433a1.758 1.758 0 0 0-1.758-1.758h-4.086a1.758 1.758 0 0 0-1.758 1.758v5.433a1.758 1.758 0 0 1-1.758 1.758h-5.434a1.759 1.759 0 0 0-1.758 1.759v4.085a1.759 1.759 0 0 0 1.758 1.759h5.434a1.758 1.758 0 0 1 1.758 1.758v5.433a1.758 1.758 0 0 0 1.758 1.758h4.086a1.758 1.758 0 0 0 1.758-1.758v-5.433a1.758 1.758 0 0 1 1.758-1.758h5.434a1.759 1.759 0 0 0 1.758-1.759V49.9a1.759 1.759 0 0 0-1.758-1.754z" class="cls-24" data-name="Path 2601" transform="translate(52.534 29.938)"/>
        <g id="Group_674" data-name="Group 674" transform="translate(-962.02 -143.487)">
            <rect id="Rectangle_674" width="180.279" height="47.731" class="cls-49" data-name="Rectangle 674" rx="8.717"/>
            <g id="Group_673" data-name="Group 673" transform="translate(22.312 11.654)">
                <path id="Rectangle_675" d="M0 0H135.655V3.256H0z" class="cls-22" data-name="Rectangle 675"/>
                <path id="Rectangle_676" d="M0 0H135.655V3.256H0z" class="cls-22" data-name="Rectangle 676" transform="translate(0 10.583)"/>
                <path id="Rectangle_677" d="M0 0H90.437V3.256H0z" class="cls-22" data-name="Rectangle 677" transform="translate(0 21.166)"/>
            </g>
        </g>
        <g id="Group_676" data-name="Group 676" transform="translate(-468.517 108.506)">
            <rect id="Rectangle_678" width="180.279" height="47.731" class="cls-49" data-name="Rectangle 678" rx="8.717"/>
            <g id="Group_675" data-name="Group 675" transform="translate(22.312 11.654)">
                <path id="Rectangle_679" d="M0 0H135.655V3.256H0z" class="cls-22" data-name="Rectangle 679"/>
                <path id="Rectangle_680" d="M0 0H135.655V3.256H0z" class="cls-22" data-name="Rectangle 680" transform="translate(0 10.583)"/>
                <path id="Rectangle_681" d="M0 0H90.437V3.256H0z" class="cls-22" data-name="Rectangle 681" transform="translate(0 21.166)"/>
            </g>
        </g>
    </g>
</svg>
