<svg xmlns="http://www.w3.org/2000/svg" width="96.574" height="57.152" viewBox="0 0 96.574 57.152">
    <path fill="#7b3bcc" fill-rule="evenodd" d="M181.032-408.137c1.639 0 2.829.791 2.829 2.641a2.829 2.829 0 0 1-2.821 2.829h-17.093a2.83 2.83 0 0 0-2.829 2.829 2.829 2.829 0 0 0 2.829 2.829h25.464a2.829 2.829 0 0 1 2.84 2.829 2.829 2.829 0 0 1-2.829 2.829h-25.475a2.829 2.829 0 0 0-2.829 2.829 2.829 2.829 0 0 0 2.829 2.829h6.224v8.488a2.829 2.829 0 0 0 2.829 2.831h5.687a10.85 10.85 0 0 0 10.628 8.677 10.85 10.85 0 0 0 10.628-8.677h28.728A10.85 10.85 0 0 0 239.3-365.7a10.85 10.85 0 0 0 10.628-8.677h4.933a2.829 2.829 0 0 0 2.829-2.829v-9.221a3.028 3.028 0 0 0-1.115-2.363l-7.624-5.885-5.662-13.509v-3.7c0-2.541-2.631-2.274-2.631-2.274H227.2l-2.89-6.147s-1.248-2.547-3.511-2.547H173a2.829 2.829 0 0 0-2.829 2.829v6.224h-3.4a2.829 2.829 0 0 0-2.829 2.829 2.829 2.829 0 0 0 2.829 2.829zm46.178 11.708v-9.9a1.23 1.23 0 0 1 1.379-1.132h9.372a2.124 2.124 0 0 1 1.957 1.488l4.379 10.446s.26.845-.394.845h-15.6s-1.1.006-1.1-.976v-.769zm15.759 16.219a5.188 5.188 0 0 1 0 7.336 5.193 5.193 0 0 1-8.855-3.668 5.193 5.193 0 0 1 8.855-3.668zm-49.984 0a5.188 5.188 0 0 1 0 7.336 5.193 5.193 0 0 1-8.855-3.668 5.193 5.193 0 0 1 8.855-3.668z" transform="translate(-161.118 422.849)"/>
</svg>
