<svg xmlns="http://www.w3.org/2000/svg" xmlns:xlink="http://www.w3.org/1999/xlink" width="58.877" height="58.877" viewBox="0 0 58.877 58.877">
    <defs>
        <linearGradient id="linear-gradient" x1=".545" x2=".542" y1="1" gradientUnits="objectBoundingBox">
            <stop offset="0" stop-color="#2e7fc2"/>
            <stop offset="1" stop-color="#1b488c"/>
        </linearGradient>
        <linearGradient id="linear-gradient-5" x1=".152" x2=".875" y1=".404" y2=".481" xlink:href="#linear-gradient"/>
        <clipPath id="clip-path">
            <path id="Path_28" d="M902.612 766.45h-.072l-17.26 17.26v24.336l12.132-12.132 17.332-17.332z" class="cls-1" data-name="Path 28" transform="translate(-885.28 -766.45)"/>
        </clipPath>
        <clipPath id="clip-path-2">
            <path id="Path_35" d="M17.332 0h-.073L0 17.26V41.6l12.132-12.136 17.332-17.332z" class="cls-1" data-name="Path 35"/>
        </clipPath>
        <style>
            .cls-1{fill:none}.cls-5{fill:url(#linear-gradient-5)}.cls-6{clip-path:url(#clip-path-2)}
        </style>
    </defs>
    <g id="Group_49" data-name="Group 49" transform="translate(-762 -431.092)">
        <g id="Group_41" clip-path="url(#clip-path)" data-name="Group 41" transform="translate(762 431.092)">
            <path id="Rectangle_24" d="M0 0H50.375V50.106H0z" class="cls-5" data-name="Rectangle 24" transform="rotate(-45.9 14.935 35.276)"/>
        </g>
        <g id="Group_48" class="cls-6" data-name="Group 48" transform="rotate(-90 625.944 -136.129)">
            <path id="Rectangle_31" d="M0 0H50.375V50.106H0z" class="cls-5" data-name="Rectangle 31" transform="rotate(-45.9 14.935 35.276)"/>
        </g>
        <g id="Group_46" class="cls-6" data-name="Group 46" transform="rotate(90 194.738 625.985)">
            <path id="Rectangle_29" d="M0 0H50.375V50.106H0z" class="cls-5" data-name="Rectangle 29" transform="rotate(-45.9 14.935 35.276)"/>
        </g>
        <g id="Group_47" class="cls-6" data-name="Group 47" transform="rotate(180 410.399 244.985)">
            <path id="Rectangle_30" d="M0 0H50.375V50.106H0z" class="cls-5" data-name="Rectangle 30" transform="rotate(-45.9 14.935 35.276)"/>
        </g>
    </g>
</svg>
