<svg xmlns="http://www.w3.org/2000/svg" width="70" height="69.618" viewBox="0 0 70 69.618">
    <path fill="#29c958" fill-rule="evenodd" d="M-193.706-441.436a34.945 34.945 0 0 1 20.666 10.026 34.934 34.934 0 0 1 10.217 22.924h-15.639a62.114 62.114 0 0 0-1.572-12.438q1.962-.611 3.754-1.347a1.855 1.855 0 0 0 1.365-1.789 1.854 1.854 0 0 0-1.855-1.854 1.855 1.855 0 0 0-.56.086l-.011-.024q-1.737.735-3.669 1.343a41.822 41.822 0 0 0-2.77-6.824c-2.608-5.018-6.031-8.607-9.925-10.1zm11.525 32.95a58.438 58.438 0 0 0-1.439-11.464 62.869 62.869 0 0 1-14.268 1.592 62.935 62.935 0 0 1-14.144-1.563 58.448 58.448 0 0 0-1.432 11.435zm-35 0h-15.639a34.86 34.86 0 0 1 5.915-17.7q1.022.629 2.148 1.255 1.032.643 2.166 1.232a41.973 41.973 0 0 0 6.974 2.817 62.133 62.133 0 0 0-1.564 12.4zm32.587-15.048a38.021 38.021 0 0 0-2.481-6.084c-2.85-5.484-6.657-8.876-10.746-8.876s-7.9 3.392-10.745 8.876a38.048 38.048 0 0 0-2.49 6.112 59.369 59.369 0 0 0 13.17 1.431 59.286 59.286 0 0 0 13.292-1.459zm-30.051-.936a41.869 41.869 0 0 1 2.782-6.861c2.608-5.018 6.031-8.607 9.925-10.1a34.945 34.945 0 0 0-20.666 10.026q-1.09 1.09-2.082 2.273.742.447 1.48.854l.029-.046q.372.24.762.473l.354.185-.014.015q.581.337 1.2.657a38.166 38.166 0 0 0 6.233 2.528zm51.824 19.7a34.855 34.855 0 0 1-5.953 17.76q-1.035-.638-2.176-1.273-1.033-.643-2.167-1.232a41.9 41.9 0 0 0-6.921-2.8 62.105 62.105 0 0 0 1.576-12.455zm-20.8 11.486a62.926 62.926 0 0 0-14.2-1.575 62.9 62.9 0 0 0-14.2 1.576 58.417 58.417 0 0 1-1.444-11.486h31.283a58.414 58.414 0 0 1-1.444 11.486zm-31.982.969a62.1 62.1 0 0 1-1.577-12.455h-15.639a34.936 34.936 0 0 0 10.217 22.924 34.946 34.946 0 0 0 20.666 10.026c-3.894-1.5-7.317-5.086-9.925-10.1a41.791 41.791 0 0 1-2.765-6.807q-1.967.615-3.74 1.366l-.011-.024a1.855 1.855 0 0 1-.56.086 1.854 1.854 0 0 1-1.855-1.855 1.855 1.855 0 0 1 1.365-1.789q1.82-.747 3.824-1.369zm4.564 2.616a59.313 59.313 0 0 1 13.22-1.442A59.316 59.316 0 0 1-184.6-389.7a38 38 0 0 1-2.474 6.062c-2.85 5.484-6.657 8.876-10.746 8.876s-7.9-3.392-10.745-8.876a37.981 37.981 0 0 1-2.474-6.062zm30.026.968a41.8 41.8 0 0 1-2.765 6.807c-2.608 5.018-6.031 8.607-9.925 10.1a34.946 34.946 0 0 0 20.666-10.026q1.066-1.065 2.038-2.221-.753-.454-1.5-.867l-.029.046q-.372-.24-.762-.473l-.354-.185.014-.015q-.581-.337-1.2-.657a38.124 38.124 0 0 0-6.186-2.507z" transform="translate(232.823 441.436)"/>
</svg>
