<svg xmlns="http://www.w3.org/2000/svg" width="371.324" height="69.618" viewBox="0 0 371.324 69.618">
    <defs>
        <style>
            .cls-1{fill:#29c958}
        </style>
    </defs>
    <g id="Group_294" transform="translate(-70.612 -632.54)">
        <path id="Union_1" d="M1589.758 659.046V677.3c0 1.617 0 1.617-1.667 1.617h-7.568c-1.871 0-1.884-.01-1.884-1.851q0-12.3-.016-24.6v-13.879c0-.441.066-.882.1-1.324l.276-.2 24.394 20.1v-18.447c0-1.536.07-1.61 1.6-1.61h8.1c1.2 0 1.417.211 1.417 1.406v39.429a2.075 2.075 0 0 1-.344 1.125zm78.091 19.943c-1.516-.021-3.036-.014-4.553-.014h-3.123c-1.44-.01-1.686-.413-1.05-1.741q9.211-19.266 18.464-38.509c.188-.393.635-.659.962-.986.325.332.767.6.956 1q9.18 19.221 18.334 38.449c.672 1.414.469 1.72-1.1 1.72h-2.439c-1.992 0-3.987-.01-5.978.022a1.324 1.324 0 0 1-1.42-.935q-4.2-9.553-8.428-19.093c-.095-.215-.211-.42-.434-.86-1.454 3.373-2.809 6.512-4.16 9.653-1.464 3.406-2.95 6.807-4.363 10.228A1.516 1.516 0 0 1 1667.9 679zm-43.782-5.723c-1.751-1.684-1.741-1.82.184-3.256 1.72-1.278 3.44-2.54 5.124-3.85a1.1 1.1 0 0 1 1.551-.1 1.081 1.081 0 0 1 .217.26 10.091 10.091 0 0 0 10.045 3.308 3.061 3.061 0 0 0 2.762-2.5 2.944 2.944 0 0 0-2.1-3.062c-1.926-.817-3.91-1.5-5.893-2.178a18.507 18.507 0 0 1-7.7-4.311 11.591 11.591 0 0 1-3.06-10.048 12.041 12.041 0 0 1 10.69-10.09 25.9 25.9 0 0 1 3.655-.274 18.735 18.735 0 0 1 8.944 2.147 23.332 23.332 0 0 1 3.217 2.347.994.994 0 0 1 .091 1.685c-1.548 1.614-3.1 3.237-4.617 4.889a1.081 1.081 0 0 1-1.783.1 8.518 8.518 0 0 0-7.224-2.028 2.642 2.642 0 0 0-.92 5.037c1.928.809 3.925 1.454 5.906 2.127a23.068 23.068 0 0 1 8.148 4.2 10.494 10.494 0 0 1 3.44 8.14 11.7 11.7 0 0 1-4.514 10.217 14.818 14.818 0 0 1-7.076 2.657c-1.24.172-2.505.2-3.759.3a21.341 21.341 0 0 1-15.328-5.717zm-63.586 5.663c-.91 0-1.251-.345-1.251-1.282q.023-19.614-.01-39.223c0-1.02.438-1.331 1.363-1.331h.044c1.768.021 3.538.014 5.3.014h3.007c1.251 0 1.465.217 1.465 1.472v38.801c0 1.474-.064 1.532-1.548 1.532h-2.432c-1.959 0-3.916-.012-5.876.019z" class="cls-1" transform="translate(-1398.623 9.94)"/>
        <path id="Path_350" fill="#29c958" fill-rule="evenodd" d="M-193.706-441.436a34.945 34.945 0 0 1 20.666 10.026 34.934 34.934 0 0 1 10.217 22.924h-15.639a62.114 62.114 0 0 0-1.572-12.438q1.962-.611 3.754-1.347a1.855 1.855 0 0 0 1.365-1.789 1.854 1.854 0 0 0-1.855-1.854 1.855 1.855 0 0 0-.56.086l-.011-.024q-1.737.735-3.669 1.343a41.822 41.822 0 0 0-2.77-6.824c-2.608-5.018-6.031-8.607-9.925-10.1zm11.525 32.95a58.438 58.438 0 0 0-1.439-11.464 62.869 62.869 0 0 1-14.268 1.592 62.935 62.935 0 0 1-14.144-1.563 58.448 58.448 0 0 0-1.432 11.435zm-35 0h-15.639a34.86 34.86 0 0 1 5.915-17.7q1.022.629 2.148 1.255 1.032.643 2.166 1.232a41.973 41.973 0 0 0 6.974 2.817 62.133 62.133 0 0 0-1.564 12.4zm32.587-15.048a38.021 38.021 0 0 0-2.481-6.084c-2.85-5.484-6.657-8.876-10.746-8.876s-7.9 3.392-10.745 8.876a38.048 38.048 0 0 0-2.49 6.112 59.369 59.369 0 0 0 13.17 1.431 59.286 59.286 0 0 0 13.292-1.459zm-30.051-.936a41.869 41.869 0 0 1 2.782-6.861c2.608-5.018 6.031-8.607 9.925-10.1a34.945 34.945 0 0 0-20.666 10.026q-1.09 1.09-2.082 2.273.742.447 1.48.854l.029-.046q.372.24.762.473l.354.185-.014.015q.581.337 1.2.657a38.166 38.166 0 0 0 6.233 2.528zm51.824 19.7a34.855 34.855 0 0 1-5.953 17.76q-1.035-.638-2.176-1.273-1.033-.643-2.167-1.232a41.9 41.9 0 0 0-6.921-2.8 62.105 62.105 0 0 0 1.576-12.455zm-20.8 11.486a62.926 62.926 0 0 0-14.2-1.575 62.9 62.9 0 0 0-14.2 1.576 58.417 58.417 0 0 1-1.444-11.486h31.283a58.414 58.414 0 0 1-1.444 11.486zm-31.982.969a62.1 62.1 0 0 1-1.577-12.455h-15.639a34.936 34.936 0 0 0 10.217 22.924 34.946 34.946 0 0 0 20.666 10.026c-3.894-1.5-7.317-5.086-9.925-10.1a41.791 41.791 0 0 1-2.765-6.807q-1.967.615-3.74 1.366l-.011-.024a1.855 1.855 0 0 1-.56.086 1.854 1.854 0 0 1-1.855-1.855 1.855 1.855 0 0 1 1.365-1.789q1.82-.747 3.824-1.369zm4.564 2.616a59.313 59.313 0 0 1 13.22-1.442A59.316 59.316 0 0 1-184.6-389.7a38 38 0 0 1-2.474 6.062c-2.85 5.484-6.657 8.876-10.746 8.876s-7.9-3.392-10.745-8.876a37.981 37.981 0 0 1-2.474-6.062zm30.026.968a41.8 41.8 0 0 1-2.765 6.807c-2.608 5.018-6.031 8.607-9.925 10.1a34.946 34.946 0 0 0 20.666-10.026q1.066-1.065 2.038-2.221-.753-.454-1.5-.867l-.029.046q-.372-.24-.762-.473l-.354-.185.014-.015q-.581-.337-1.2-.657a38.124 38.124 0 0 0-6.186-2.507z" transform="translate(303.435 1073.976)"/>
        <path id="Path_352" d="M25.992-19.988a1.459 1.459 0 0 1 1.045.418 1.455 1.455 0 0 1 .437 1.1 2.932 2.932 0 0 1-.019.323.951.951 0 0 1-.1.323L21.508-.988a1.488 1.488 0 0 1-.627.76A1.526 1.526 0 0 1 19.95 0a1.517 1.517 0 0 1-1.33-.988L13.832-13l.76.114L10.26-.988A1.463 1.463 0 0 1 8.93 0a1.605 1.605 0 0 1-.95-.228 1.294 1.294 0 0 1-.608-.76L1.406-17.822a2.046 2.046 0 0 1-.114-.646 1.525 1.525 0 0 1 .418-1.064 1.47 1.47 0 0 1 1.14-.456 1.594 1.594 0 0 1 .836.228 1.219 1.219 0 0 1 .532.722l5.13 14.972L8.55-4.1 13-15.5a1.4 1.4 0 0 1 1.406-.95 1.371 1.371 0 0 1 .855.247 1.421 1.421 0 0 1 .475.7L20.368-4.1l-.95.076 5.13-15.01a1.384 1.384 0 0 1 1.444-.954zM40.47.38a10.608 10.608 0 0 1-5.32-1.292 9.077 9.077 0 0 1-3.534-3.553 10.6 10.6 0 0 1-1.254-5.225 11.368 11.368 0 0 1 1.311-5.643 9.345 9.345 0 0 1 3.4-3.572 8.6 8.6 0 0 1 4.447-1.235 9.072 9.072 0 0 1 3.4.646 8.817 8.817 0 0 1 2.888 1.881 9.28 9.28 0 0 1 2.033 2.964 9.934 9.934 0 0 1 .8 3.857 1.47 1.47 0 0 1-.494 1.026 1.525 1.525 0 0 1-1.064.418H32.072l-.684-2.622h14.63l-.608.532v-.836a4.746 4.746 0 0 0-1.01-2.679 6.054 6.054 0 0 0-2.185-1.729 6.264 6.264 0 0 0-2.7-.608 6.7 6.7 0 0 0-2.261.4 5.378 5.378 0 0 0-2.009 1.29 6.4 6.4 0 0 0-1.425 2.3 9.574 9.574 0 0 0-.532 3.382 8.1 8.1 0 0 0 .893 3.876A6.75 6.75 0 0 0 36.67-3.4a6.961 6.961 0 0 0 3.686.969 7.226 7.226 0 0 0 2.356-.342 6.406 6.406 0 0 0 1.688-.856 8.32 8.32 0 0 0 1.2-1.045 1.727 1.727 0 0 1 .988-.342 1.244 1.244 0 0 1 .912.38 1.244 1.244 0 0 1 .38.912 1.445 1.445 0 0 1-.608 1.14 10 10 0 0 1-2.907 2.071A8.663 8.663 0 0 1 40.47.38zM62.7-20.14a8.426 8.426 0 0 1 4.636 1.311 9.29 9.29 0 0 1 3.249 3.591 11.2 11.2 0 0 1 1.2 5.282 11.431 11.431 0 0 1-1.2 5.32 9.573 9.573 0 0 1-3.23 3.667A8.1 8.1 0 0 1 62.776.38a7.86 7.86 0 0 1-2.641-.437 8.594 8.594 0 0 1-2.242-1.178A8.319 8.319 0 0 1 56.2-2.869a6.381 6.381 0 0 1-.988-1.767l.836-.532v3.8a1.573 1.573 0 0 1-.418 1.1 1.424 1.424 0 0 1-1.1.456 1.471 1.471 0 0 1-1.083-.437 1.518 1.518 0 0 1-.437-1.121v-25.192a1.535 1.535 0 0 1 .437-1.1 1.44 1.44 0 0 1 1.083-.456 1.424 1.424 0 0 1 1.1.456 1.573 1.573 0 0 1 .418 1.1v11.7l-.57-.3a5.625 5.625 0 0 1 .931-1.843 7.53 7.53 0 0 1 1.634-1.6 8.353 8.353 0 0 1 2.166-1.121 7.5 7.5 0 0 1 2.491-.414zm-.342 2.812a6.037 6.037 0 0 0-3.363.95 6.4 6.4 0 0 0-2.28 2.622 8.545 8.545 0 0 0-.817 3.8 8.791 8.791 0 0 0 .817 3.838 6.62 6.62 0 0 0 2.28 2.7 5.867 5.867 0 0 0 3.363.988 5.778 5.778 0 0 0 3.342-.99 6.818 6.818 0 0 0 2.28-2.7 8.623 8.623 0 0 0 .836-3.838 8.382 8.382 0 0 0-.836-3.8 6.587 6.587 0 0 0-2.28-2.622 5.945 5.945 0 0 0-3.342-.948zM75.05-3.116a1.6 1.6 0 0 1-.3-1.045 1.3 1.3 0 0 1 .646-.969 1.337 1.337 0 0 1 .893-.228 1.39 1.39 0 0 1 .931.494 8.465 8.465 0 0 0 2.432 2 6.941 6.941 0 0 0 3.344.741 7.629 7.629 0 0 0 1.824-.3 3.369 3.369 0 0 0 1.539-.931 2.471 2.471 0 0 0 .627-1.767 2.248 2.248 0 0 0-.646-1.691 4.931 4.931 0 0 0-1.672-1.026 18.714 18.714 0 0 0-2.242-.7q-1.254-.342-2.47-.779a9.546 9.546 0 0 1-2.185-1.1 5.173 5.173 0 0 1-1.562-1.683 4.778 4.778 0 0 1-.589-2.451 4.834 4.834 0 0 1 .931-2.964 6.039 6.039 0 0 1 2.508-1.938 8.549 8.549 0 0 1 3.441-.687 10.666 10.666 0 0 1 2.223.247 8.573 8.573 0 0 1 2.261.836 6.35 6.35 0 0 1 1.938 1.615 1.526 1.526 0 0 1 .38.95 1.218 1.218 0 0 1-.494 1.026 1.365 1.365 0 0 1-.931.266 1.3 1.3 0 0 1-.855-.38 5.274 5.274 0 0 0-2-1.463 6.636 6.636 0 0 0-2.641-.513 6.1 6.1 0 0 0-1.786.266 3.273 3.273 0 0 0-1.463.893 2.425 2.425 0 0 0-.589 1.729A2.4 2.4 0 0 0 79.23-13a4.686 4.686 0 0 0 1.748 1.045q1.1.4 2.432.779 1.216.3 2.337.7a8.325 8.325 0 0 1 2.033 1.052 4.665 4.665 0 0 1 1.444 1.653 5.373 5.373 0 0 1 .532 2.527 4.782 4.782 0 0 1-.988 3.021 6.213 6.213 0 0 1-2.6 1.938 9.042 9.042 0 0 1-3.48.665 11.2 11.2 0 0 1-4.123-.8 8.261 8.261 0 0 1-3.515-2.696zm22.04 1.558a1.535 1.535 0 0 1-.437 1.1A1.44 1.44 0 0 1 95.57 0a1.424 1.424 0 0 1-1.1-.456 1.573 1.573 0 0 1-.418-1.1V-18.43a1.471 1.471 0 0 1 .437-1.083 1.471 1.471 0 0 1 1.083-.437 1.471 1.471 0 0 1 1.083.437 1.471 1.471 0 0 1 .437 1.083zM95.57-22.5a2.168 2.168 0 0 1-1.406-.38 1.447 1.447 0 0 1-.456-1.178v-.532a1.392 1.392 0 0 1 .494-1.178 2.265 2.265 0 0 1 1.406-.38 2.1 2.1 0 0 1 1.368.38 1.447 1.447 0 0 1 .456 1.178v.532a1.418 1.418 0 0 1-.475 1.178 2.181 2.181 0 0 1-1.387.38zm6.232 2.964h8.93a1.333 1.333 0 0 1 1.007.418 1.383 1.383 0 0 1 .4.988 1.365 1.365 0 0 1-.4 1.007 1.365 1.365 0 0 1-1.007.4H101.8a1.351 1.351 0 0 1-.988-.418 1.4 1.4 0 0 1-.418-1.026 1.29 1.29 0 0 1 .418-.969 1.383 1.383 0 0 1 .988-.396zm3.99-5.168a1.409 1.409 0 0 1 1.064.437 1.506 1.506 0 0 1 .418 1.083v18.358a2.778 2.778 0 0 0 .266 1.368 1.4 1.4 0 0 0 .7.627 2.337 2.337 0 0 0 .855.171 1.558 1.558 0 0 0 .665-.133 1.558 1.558 0 0 1 .665-.133.939.939 0 0 1 .7.361 1.344 1.344 0 0 1 .323.931 1.362 1.362 0 0 1-.8 1.159A3.425 3.425 0 0 1 108.87 0q-.532 0-1.311-.076a3.98 3.98 0 0 1-1.539-.494 3.253 3.253 0 0 1-1.273-1.387 5.89 5.89 0 0 1-.513-2.717V-23.18a1.44 1.44 0 0 1 .456-1.083 1.535 1.535 0 0 1 1.102-.437zM125.058.38a10.608 10.608 0 0 1-5.32-1.292 9.077 9.077 0 0 1-3.538-3.553 10.6 10.6 0 0 1-1.25-5.225 11.368 11.368 0 0 1 1.311-5.643 9.345 9.345 0 0 1 3.4-3.572 8.6 8.6 0 0 1 4.446-1.235 9.072 9.072 0 0 1 3.4.646 8.817 8.817 0 0 1 2.888 1.881 9.28 9.28 0 0 1 2.033 2.964 9.934 9.934 0 0 1 .8 3.857 1.47 1.47 0 0 1-.494 1.026 1.525 1.525 0 0 1-1.064.418h-15.01l-.684-2.622h14.63l-.608.532v-.836a4.746 4.746 0 0 0-1.007-2.679 6.055 6.055 0 0 0-2.185-1.729 6.264 6.264 0 0 0-2.7-.608 6.7 6.7 0 0 0-2.261.4 5.378 5.378 0 0 0-2.014 1.292 6.4 6.4 0 0 0-1.425 2.3 9.573 9.573 0 0 0-.532 3.382 8.1 8.1 0 0 0 .893 3.876 6.75 6.75 0 0 0 2.491 2.64 6.961 6.961 0 0 0 3.686.969 7.226 7.226 0 0 0 2.356-.342 6.406 6.406 0 0 0 1.691-.855 8.32 8.32 0 0 0 1.2-1.045 1.727 1.727 0 0 1 .988-.342 1.244 1.244 0 0 1 .912.38 1.244 1.244 0 0 1 .38.912 1.444 1.444 0 0 1-.608 1.14 10 10 0 0 1-2.907 2.071 8.663 8.663 0 0 1-3.898.892z" class="cls-1" transform="translate(308.708 688.12)"/>
    </g>
</svg>
