<svg xmlns="http://www.w3.org/2000/svg" id="Layer" width="50.543" height="45.895" viewBox="0 0 50.543 45.895">
    <g id="Vrstva_237" data-name="Vrstva 237">
        <path id="Path_512" fill="#fff" d="M28.5 23.782h7.1a6.875 6.875 0 0 1 6.646 5.752 16.042 16.042 0 0 1 0 1.833v.458h2.292a10.29 10.29 0 0 1 1.9.252 6.875 6.875 0 0 1 4.973 5.706 15.331 15.331 0 0 1-.16 4.9 6.875 6.875 0 0 1-6.715 5.179h-9.161A6.875 6.875 0 0 1 28.5 41.84a14.827 14.827 0 0 1 0-4.721 6.875 6.875 0 0 1 6.119-5.294h3.048a3.965 3.965 0 0 0-.412-2.475 2.292 2.292 0 0 0-1.833-.962h-18.38a2.292 2.292 0 0 0-2.292 2.131v1.306h3.025a6.875 6.875 0 0 1 6 5.523 8.25 8.25 0 0 1 .115 1.512 25.849 25.849 0 0 1 0 2.979 6.875 6.875 0 0 1-5.408 5.8 10.589 10.589 0 0 1-1.444.229H8.036a6.875 6.875 0 0 1-6.142-3.483A6.6 6.6 0 0 1 1 40.992v-2.566a6.875 6.875 0 0 1 6.119-6.6h3.048v-1.765a6.875 6.875 0 0 1 5.546-6.119 7.769 7.769 0 0 1 1.467-.138h6.737v-3.437a.275.275 0 0 0-.206-.3 8.869 8.869 0 0 1-6.554-7.494 8.64 8.64 0 0 1 2.177-7.54 8.938 8.938 0 0 1 7.769-3 9.125 9.125 0 0 1 3.552 17.073 19.273 19.273 0 0 1-1.994.848c-.115 0-.206 0-.206.229v3.392a.944.944 0 0 1 .045.207zm-16.042 19.5h4.583a2.292 2.292 0 0 0 2.292-2.292V38.7a2.292 2.292 0 0 0-2.292-2.292H7.875A2.292 2.292 0 0 0 5.584 38.7v2.108a2.292 2.292 0 0 0 2.452 2.475zm27.5 0h4.721a2.292 2.292 0 0 0 2.154-2.292V38.7a2.292 2.292 0 0 0-2.292-2.292h-9.166a2.292 2.292 0 0 0-2.292 1.879 6.876 6.876 0 0 0 0 .963v1.627a2.292 2.292 0 0 0 2.292 2.406zM30.792 11.2a4.583 4.583 0 1 0-4.583 4.583 4.583 4.583 0 0 0 4.583-4.583z" data-name="Path 512" transform="translate(-1 -1.974)"/>
    </g>
</svg>
