<svg xmlns="http://www.w3.org/2000/svg" id="ic-ecommerce-house" width="55" height="55" viewBox="0 0 55 55">
    <path id="Rectangle_113" fill="none" d="M0 0H55V55H0z" data-name="Rectangle 113"/>
    <g id="Layer" transform="translate(.225 4.583)">
        <path id="Path_200" fill="#fff" d="M47.265 3.7A2.773 2.773 0 0 0 44.721 2h-34.7a2.773 2.773 0 0 0-2.54 1.7L.308 21.112a2.75 2.75 0 0 0 2.544 3.8h3.392V43.25H4.456a2.292 2.292 0 1 0 0 4.583H50.29a2.292 2.292 0 0 0 0-4.583h-2.8V24.917h4.4a2.75 2.75 0 0 0 2.544-3.8zM19.994 43.25V31.792h4.583v10.816a2.017 2.017 0 0 0 .138.642zm9.167 0a2.887 2.887 0 0 0 0-.642V31.792h4.583V43.25zm13.865 0h-4.584V29.958a2.75 2.75 0 0 0-2.75-2.75H18.206a2.75 2.75 0 0 0-2.75 2.75V43.25h-4.583V24.917h3.735a2.7 2.7 0 0 0 1.627-.527l4.835-3.506 4.583 3.392a2.75 2.75 0 0 0 3.254 0l4.583-3.392 4.835 3.506a2.681 2.681 0 0 0 1.6.527h2.8zm-2.293-22.917L35.3 16.392a2.75 2.75 0 0 0-3.254 0l-4.675 3.392-4.581-3.392a2.75 2.75 0 0 0-3.254 0l-5.523 3.942H5.579l5.752-13.75h32.084L49.1 20.333z" data-name="Path 200" transform="translate(-.098 -2)"/>
    </g>
</svg>
