<svg xmlns="http://www.w3.org/2000/svg" width="31.56" height="30.266" viewBox="0 0 31.56 30.266">
    <defs>
        <style>
            .cls-1{fill:#cfd2d4}
        </style>
    </defs>
    <g id="Group_841" data-name="Group 841" transform="translate(850.64 -326.681)">
        <path id="Path_2811" d="M-748.725 340.9c-1.76 0-3.188-.059-4.608.021-.961.054-1.183-.321-1.175-1.2q.053-6 0-12.006c-.007-.788.244-1.041 1.025-1.034 3.335.033 6.67.014 10 .017.161 0 .323.034.542.059a6.267 6.267 0 0 1 .076.687c0 3.735.024 7.471-.014 11.205a30.729 30.729 0 0 1-1.5 9.64 14.282 14.282 0 0 1-8.191 8.54.887.887 0 0 1-.8-.338c-.662-1.564-1.233-3.166-1.877-4.738-.286-.7.157-.874.631-1.09a7.968 7.968 0 0 0 4.63-4.577c.559-1.609.822-3.318 1.261-5.186z" class="cls-1" data-name="Path 2811" transform="translate(-76.229)"/>
        <path id="Path_2812" d="M-844.513 340.918c-1.452 0-2.849-.03-4.245.012-.745.023-1.078-.171-1.071-1q.051-6.155 0-12.312c0-.706.255-.926.936-.922 3.3.021 6.606.011 9.909.007.478 0 .851.056.834.691-.146 5.431-.151 10.87-.461 16.291a14.8 14.8 0 0 1-3.646 9.028 16.892 16.892 0 0 1-5.587 4.136c-.532.254-.726.044-.894-.392-.6-1.555-1.191-3.114-1.816-4.658-.267-.66.09-.887.6-1.113 4.067-1.793 5.551-5.125 5.532-9.341a2.694 2.694 0 0 0-.091-.427z" class="cls-1" data-name="Path 2812" transform="translate(0 -.015)"/>
    </g>
</svg>
