<svg xmlns="http://www.w3.org/2000/svg" id="Layer" width="50.417" height="41.228" viewBox="0 0 50.417 41.228">
    <g id="Vrstva_176" data-name="Vrstva 176">
        <path id="Path_198" fill="#fff" d="M44.221 13.267a2.773 2.773 0 0 0-2.292-1.1h-4.262V9.875A6.875 6.875 0 0 0 30.792 3H7.875A6.875 6.875 0 0 0 1 9.875v22.917a6.875 6.875 0 0 0 6.875 6.875h.412a6.875 6.875 0 0 0 12.925 0h7.7a6.875 6.875 0 0 0 12.948 0 2.292 2.292 0 0 0 .39 0h6.417a2.75 2.75 0 0 0 2.75-2.75V23.785a2.658 2.658 0 0 0-.55-1.65zm-29.471 26.4a2.292 2.292 0 1 1 2.292-2.292 2.292 2.292 0 0 1-2.292 2.292zm20.625 0a2.292 2.292 0 1 1 2.292-2.292 2.292 2.292 0 0 1-2.292 2.292zm11.458-4.583H42.25a2.292 2.292 0 0 0-.39 0 6.875 6.875 0 0 0-12.948 0h-7.7a6.875 6.875 0 0 0-12.925 0h-.412a2.292 2.292 0 0 1-2.292-2.292V9.875a2.292 2.292 0 0 1 2.292-2.292h22.917a2.292 2.292 0 0 1 2.292 2.292v16.042a2.292 2.292 0 1 0 4.583 0V16.75H41.1l5.729 7.631z" data-name="Path 198" transform="translate(-1 -3)"/>
    </g>
</svg>
