<svg width="878" height="1024" viewBox="0 0 878 1024" style="margin-left: calc(50% - 0.4287109375em)"><g transform="scale(0.02734375 0.02734375)"><path d="M670.286 607.429c0-99.429-96.571-133.714-177.714-152l-59.429-13.714c-43.429-10.286-76-17.714-76-50.857 0-30.286 32-44 82.286-44 89.714 0 91.429 65.714 146.857 65.714 37.143 0 59.429-29.143 59.429-62.286 0-65.714-109.143-108.571-217.143-108.571-98.857 0-213.714 42.857-213.714 158.857 0 96 64 130.286 147.429 150.286l83.429 20.571c50.857 12.571 82.286 18.286 82.286 54.857 0 29.143-32.571 51.429-82.857 51.429-105.714 0-111.429-88-172.571-88-40 0-57.714 28.571-57.714 60 0 70.286 107.429 127.429 236 127.429 107.429 0 219.429-53.714 219.429-169.714zM877.714 731.429c0 121.143-98.286 219.429-219.429 219.429-50.286 0-96.571-17.143-133.714-45.714-27.429 5.714-56.571 9.143-85.714 9.143-222.286 0-402.286-180-402.286-402.286 0-29.143 3.429-58.286 9.143-85.714-28.571-37.143-45.714-83.429-45.714-133.714 0-121.143 98.286-219.429 219.429-219.429 50.286 0 96.571 17.143 133.714 45.714 27.429-5.714 56.571-9.143 85.714-9.143 222.286 0 402.286 180 402.286 402.286 0 29.143-3.429 58.286-9.143 85.714 28.571 37.143 45.714 83.429 45.714 133.714z"></path></g></svg>