<svg xmlns="http://www.w3.org/2000/svg" xmlns:xlink="http://www.w3.org/1999/xlink" width="26.875" height="32" viewBox="0 0 26.875 32">
  <defs>
    <clipPath id="clip-path">
      <rect id="Rectangle_1" data-name="Rectangle 1" width="26.875" height="32" fill="none"/>
    </clipPath>
  </defs>
  <g id="Vector_Smart_Object" data-name="Vector Smart Object" transform="translate(-1240.849 -1013)">
    <g id="Vector_Smart_Object-2" data-name="Vector Smart Object" transform="translate(1240.849 1013)">
      <g id="Group_14" data-name="Group 14">
        <g id="Group_13" data-name="Group 13" clip-path="url(#clip-path)">
          <path id="Path_63" data-name="Path 63" d="M20.6,21.072a10.917,10.917,0,0,1-14.325,0A12.232,12.232,0,0,0,3.661,23.66,12.086,12.086,0,0,0,1.25,30.938v.125A.938.938,0,0,0,2.188,32h22.5a.938.938,0,0,0,.938-.937v-.125a12.086,12.086,0,0,0-2.411-7.278A12.235,12.235,0,0,0,20.6,21.072Z"/>
          <path id="Path_64" data-name="Path 64" d="M15.126,17.455a.955.955,0,0,1,.963-.892h5.6a9.092,9.092,0,1,0-1.149,1.875H16.063a.938.938,0,0,1-.936-.983"/>
          <path id="Path_65" data-name="Path 65" d="M25.938,9.063H25.69a12.892,12.892,0,0,0-4.277-6.277,12.813,12.813,0,0,0-15.952,0A12.892,12.892,0,0,0,1.185,9.063H.938A.938.938,0,0,0,0,10v3.75a.938.938,0,0,0,.938.938H2.5V12.813a10.886,10.886,0,0,1,.662-3.75h0a10.943,10.943,0,0,1,20.556,0h0a10.886,10.886,0,0,1,.662,3.75v3.75H21.687l-1.149,1.875h4.775a.938.938,0,0,0,.938-.937V14.633a.937.937,0,0,0,.625-.883V10a.938.938,0,0,0-.937-.937"/>
        </g>
      </g>
    </g>
    <path id="Color_Overlay" data-name="Color Overlay" d="M1243.038,1045a.937.937,0,0,1-.938-.937v-.125a12.086,12.086,0,0,1,2.411-7.278,12.242,12.242,0,0,1,2.614-2.589,10.914,10.914,0,0,0,14.325,0,12.241,12.241,0,0,1,2.614,2.589,12.085,12.085,0,0,1,2.411,7.278v.125a.937.937,0,0,1-.937.937Zm2.187-19.187a9.063,9.063,0,1,1,17.312,3.75h-5.6a.954.954,0,0,0-.963.892.937.937,0,0,0,.936.983h4.476a9.059,9.059,0,0,1-16.163-5.625Zm16.163,5.625,1.149-1.875h2.687v-3.75a10.9,10.9,0,0,0-.662-3.751h0a10.944,10.944,0,0,0-20.557,0h0a10.9,10.9,0,0,0-.662,3.751v1.875h-1.562a.937.937,0,0,1-.938-.937V1023a.939.939,0,0,1,.938-.939h.247a12.893,12.893,0,0,1,4.277-6.276,12.813,12.813,0,0,1,15.953,0,12.892,12.892,0,0,1,4.277,6.276h.247a.939.939,0,0,1,.938.939v3.75a.935.935,0,0,1-.625.882v2.867a.938.938,0,0,1-.938.938Z" fill="#ff7b7b"/>
  </g>
</svg>
