<svg xmlns="http://www.w3.org/2000/svg" id="Layer" width="40.848" height="46.613" viewBox="0 0 40.848 46.613">
    <defs>
        <style>
            .cls-1{fill:#fff;fill-rule:evenodd}
        </style>
    </defs>
    <g id="Vrstva_194" data-name="Vrstva 194">
        <path id="Path_488" d="M5.382 48a2.292 2.292 0 0 0 2.292-2.292V4.462a2.292 2.292 0 0 0-4.583 0v41.25A2.292 2.292 0 0 0 5.382 48z" class="cls-1" data-name="Path 488" transform="translate(-3.09 -1.391)"/>
        <path id="Path_489" d="M36.011 1.83H9.84a2.75 2.75 0 0 0-2.75 2.681V24.22a2.75 2.75 0 0 0 2.75 2.75h26.171a2.75 2.75 0 0 0 2.289-4.286l-5.546-8.25L38.3 6.115a2.75 2.75 0 0 0-2.289-4.285zm-7.746 14.14l4.335 6.485H11.673V6.413H32.6L28.265 12.9a2.773 2.773 0 0 0 0 3.071z" class="cls-1" data-name="Path 489" transform="translate(2.077 -1.83)"/>
    </g>
</svg>
